<?xml version="1.0" encoding="UTF-8" standalone="no"?>
<!-- Created with Inkscape (http://www.inkscape.org/) -->

<svg
   width="88.839783mm"
   height="20.643888mm"
   viewBox="0 0 88.839782 20.643888"
   version="1.1"
   id="svg1"
   inkscape:export-filename="board.svg"
   inkscape:export-xdpi="96"
   inkscape:export-ydpi="96"
   sodipodi:docname="board-selected.svg"
   inkscape:version="1.4.4 (dcaf3e7, 2026-05-05)"
   xmlns:inkscape="http://www.inkscape.org/namespaces/inkscape"
   xmlns:sodipodi="http://sodipodi.sourceforge.net/DTD/sodipodi-0.dtd"
   xmlns="http://www.w3.org/2000/svg"
   xmlns:svg="http://www.w3.org/2000/svg">
  <sodipodi:namedview
     id="namedview1"
     pagecolor="#ffffff"
     bordercolor="#000000"
     borderopacity="0.25"
     inkscape:showpageshadow="2"
     inkscape:pageopacity="0.0"
     inkscape:pagecheckerboard="0"
     inkscape:deskcolor="#d1d1d1"
     inkscape:document-units="mm"
     inkscape:zoom="4.270592"
     inkscape:cx="301.36337"
     inkscape:cy="48.939351"
     inkscape:window-width="1147"
     inkscape:window-height="895"
     inkscape:window-x="0"
     inkscape:window-y="33"
     inkscape:window-maximized="0"
     inkscape:current-layer="layer1">
    <inkscape:page
       x="0"
       y="0"
       width="88.839783"
       height="20.643888"
       id="page2"
       margin="0"
       bleed="0" />
  </sodipodi:namedview>
  <defs
     id="defs1" />
  <g
     inkscape:label="Layer 1"
     inkscape:groupmode="layer"
     id="layer1"
     transform="translate(-64.131247,-140.45392)">
    <path
       d="m 68.996107,156.36983 c 12.31748,5.92331 6.450181,-1.64035 33.548643,-6.29438 12.04375,-2.11547 44.85429,1.95746 49.73143,0.89982 3.89005,6.8752 -7.76396,10.52873 -55.086726,10.08661 -16.149592,-0.84618 -26.277296,-0.46111 -30.383122,-2.99968 z"
       fill="#7fb4d4"
       opacity="0.22"
       id="path1-3-3"
       style="stroke-width:0.34031;fill:#e9e0fb;fill-opacity:1"
       sodipodi:nodetypes="cccccc" />
    <path
       d="m 64.99309,149.5382 c 0.518069,-4.3677 3.885517,-7.05552 9.325237,-7.39151 15.283031,-1.3439 33.933503,-0.33598 50.511703,-0.67195 11.65655,-0.33598 20.46371,0.33597 24.8673,3.02379 3.10841,2.01587 2.84938,6.38358 -0.77711,9.0714 -5.69875,4.36771 -16.06013,4.70368 -29.78895,4.36771 -16.83723,0.33597 -35.487705,1.34391 -47.144251,-0.67196 -4.92165,-0.67195 -7.77103,-4.03173 -6.993929,-7.72748 z"
       fill="#fbfbf3"
       stroke="#111111"
       stroke-width="5.08645"
       stroke-linecap="round"
       stroke-linejoin="round"
       id="path2-2-0"
       style="stroke-width:0;stroke-dasharray:none;fill:#e9e0fb;fill-opacity:1" />
    <path
       d="m 68.619571,149.20222 c 1.554209,-3.0238 6.475863,-4.03172 16.060132,-4.3677 16.060127,-0.67196 33.156407,-0.33599 49.475557,-0.33599 8.2891,0 13.21076,1.67989 13.46979,4.70369 0.25903,3.0238 -4.66261,5.37565 -12.69268,6.0476 -17.61433,1.34391 -43.258734,1.34391 -60.095971,0.33597 -4.662619,-0.33597 -6.993932,-3.35977 -6.216828,-6.38357 z"
       fill="none"
       stroke="#111111"
       stroke-width="0.442513"
       stroke-linecap="round"
       stroke-linejoin="round"
       opacity="0.22"
       id="path3-6-4" />
    <path
       d="m 75.735029,141.39981 1.64319,0.56097 -0.438176,1.70986 -1.46393,2.54297 -3.477565,6.72389 -2.073403,3.1463 -1.150765,-0.23051 0.168833,-1.89656 2.348258,-3.96528 2.593236,-5.30157 z"
       fill="#3f57c8"
       id="path6-1-5-8"
       style="stroke-width:0.235698;fill:#7e40d6;fill-opacity:1"
       sodipodi:nodetypes="ccccccccccc" />
    <path
       d="m 76.158713,141.14173 0.932799,0.065 -0.924175,2.18308 -5.135784,10.00955 -1.318407,1.35809 0.26497,-1.50403 3.673031,-7.0665 z"
       fill="#86a2ff"
       opacity="0.42"
       id="path7-4-95-9"
       style="stroke-width:0.260055;fill:#b382f5;fill-opacity:1"
       sodipodi:nodetypes="cccccccc" />
    <path
       d="m 81.016314,141.8089 1.676503,0.51461 -0.527279,1.85641 -1.624873,2.80382 -3.889371,7.39291 -2.281705,3.48291 -1.181104,-0.18632 0.256564,-2.04234 2.601513,-4.37552 2.912728,-5.82121 z"
       fill="#3f57c8"
       id="path6-1-4-3-6"
       style="stroke-width:0.248033;fill:#7e40d6;fill-opacity:1"
       sodipodi:nodetypes="ccccccccccc" />
    <path
       d="m 80.809999,143.05319 0.260707,0.12023 -0.06179,0.23176 -0.528863,0.95662 -0.241693,0.0564 -0.05906,-0.20353 0.386286,-0.66977 z"
       fill="#86a2ff"
       opacity="0.42"
       id="path7-4-7-2-0"
       style="stroke-width:0.0467823;fill:#b382f5;fill-opacity:1"
       sodipodi:nodetypes="cccccccc" />
    <path
       d="m 80.076637,147.37304 0.160117,-0.087 -0.347728,0.73887 -1.75393,3.48967 -0.348311,0.54404 0.173586,-0.46682 1.246634,-2.46898 z"
       fill="#86a2ff"
       opacity="0.42"
       id="path7-4-7-1-7-4"
       style="stroke-width:0.0532922" />
    <path
       d="m 75.104497,154.76405 0.459041,0.19902 -0.133046,0.45478 -1.043115,1.91164 -0.441209,0.13931 -0.08756,-0.38513 0.759221,-1.34046 z"
       fill="#86a2ff"
       opacity="0.42"
       id="path7-4-7-5-3-2"
       style="stroke-width:0.0871113;fill:#b382f5;fill-opacity:1"
       sodipodi:nodetypes="cccccccc" />
    <path
       d="m 142.86554,142.1239 1.89461,0.61485 -0.50522,1.87412 -1.68793,2.78725 -4.00965,7.36981 -2.39064,3.44853 -1.32684,-0.25264 0.19466,-2.07876 2.70756,-4.34618 2.99002,-5.81086 z"
       fill="#3f57c8"
       id="path6-1-5-8-3-9"
       style="fill:#7e40d6;fill-opacity:1;stroke-width:0.264966"
       sodipodi:nodetypes="ccccccccccc" />
    <path
       d="m 143.35405,141.83693 1.07552,0.0723 -1.06557,2.42743 -5.9216,11.12986 -1.52013,1.5101 0.30552,-1.67237 4.23502,-7.85742 z"
       fill="#86a2ff"
       opacity="0.42"
       id="path7-4-95-9-0-9"
       style="fill:#b382f5;fill-opacity:1;stroke-width:0.294455"
       sodipodi:nodetypes="cccccccc" />
    <path
       d="m 148.03062,143.15749 1.59776,0.45267 -0.50251,1.63298 -1.54856,2.46637 -3.70671,6.50314 -2.17455,3.06372 -1.12563,-0.16391 0.24451,-1.79652 2.47933,-3.84891 2.77594,-5.1206 z"
       fill="#3f57c8"
       id="path6-1-4-3-6-1-8"
       style="fill:#7e40d6;fill-opacity:1;stroke-width:0.227101"
       sodipodi:nodetypes="ccccccccccc" />
    <path
       d="m 148.19193,143.70208 0.26071,0.11732 -0.0618,0.22615 -0.52887,0.93344 -0.24169,0.055 -0.0591,-0.1986 0.38629,-0.65355 z"
       fill="#86a2ff"
       opacity="0.42"
       id="path7-4-7-2-0-9-3"
       style="fill:#b382f5;fill-opacity:1;stroke-width:0.0462122"
       sodipodi:nodetypes="cccccccc" />
    <path
       d="m 147.45857,147.91728 0.16012,-0.0849 -0.34773,0.72097 -1.75393,3.40513 -0.34831,0.53086 0.17358,-0.45551 1.24664,-2.40917 z"
       fill="#86a2ff"
       opacity="0.42"
       id="path7-4-7-1-7-4-8-7"
       style="fill:#b382f5;fill-opacity:1;stroke-width:0.0526427" />
    <path
       d="m 142.33678,153.51235 0.52929,0.2213 -0.15341,0.50567 -1.20273,2.12561 -0.5087,0.1549 -0.10101,-0.42823 0.87539,-1.4905 z"
       fill="#86a2ff"
       opacity="0.42"
       id="path7-4-7-5-3-2-6-1"
       style="fill:#b382f5;fill-opacity:1;stroke-width:0.0986343"
       sodipodi:nodetypes="cccccccc" />
    <path
       d="m 65.209649,149.34017 c 0.518069,-4.36771 3.885517,-7.05553 9.325237,-7.39151 15.283034,-1.34391 33.933504,-0.33597 50.511694,-0.67195 11.65656,-0.33599 20.46373,0.33598 24.86731,3.0238 3.10841,2.01586 2.84938,6.38357 -0.77711,9.07139 -5.69875,4.36771 -16.06012,4.70368 -29.78895,4.36771 -16.83723,0.33597 -35.487706,1.3439 -47.144251,-0.67197 -4.921652,-0.67195 -7.771032,-4.03173 -6.99393,-7.72747 z"
       fill="#fbfbf3"
       stroke="#111111"
       stroke-width="5.08645"
       stroke-linecap="round"
       stroke-linejoin="round"
       id="path2-2-6-3"
       style="fill:#e9e0fb;fill-opacity:0;stroke-width:1.47493;stroke-dasharray:none" />
  </g>
</svg>
