<?xml version="1.0" encoding="UTF-8" standalone="no"?>
<!-- Created with Inkscape (http://www.inkscape.org/) -->

<svg
   width="88.839783mm"
   height="20.643888mm"
   viewBox="0 0 88.839782 20.643888"
   version="1.1"
   id="svg1"
   inkscape:export-filename="board.svg"
   inkscape:export-xdpi="96"
   inkscape:export-ydpi="96"
   sodipodi:docname="board.svg"
   inkscape:version="1.4.4 (dcaf3e7, 2026-05-05)"
   xmlns:inkscape="http://www.inkscape.org/namespaces/inkscape"
   xmlns:sodipodi="http://sodipodi.sourceforge.net/DTD/sodipodi-0.dtd"
   xmlns="http://www.w3.org/2000/svg"
   xmlns:svg="http://www.w3.org/2000/svg">
  <sodipodi:namedview
     id="namedview1"
     pagecolor="#ffffff"
     bordercolor="#000000"
     borderopacity="0.25"
     inkscape:showpageshadow="2"
     inkscape:pageopacity="0.0"
     inkscape:pagecheckerboard="0"
     inkscape:deskcolor="#d1d1d1"
     inkscape:document-units="mm"
     inkscape:zoom="3.6655614"
     inkscape:cx="96.165351"
     inkscape:cy="66.701925"
     inkscape:window-width="1396"
     inkscape:window-height="768"
     inkscape:window-x="0"
     inkscape:window-y="33"
     inkscape:window-maximized="0"
     inkscape:current-layer="layer1">
    <inkscape:page
       x="0"
       y="0"
       width="88.839783"
       height="20.643888"
       id="page2"
       margin="0"
       bleed="0" />
  </sodipodi:namedview>
  <defs
     id="defs1" />
  <g
     inkscape:label="Layer 1"
     inkscape:groupmode="layer"
     id="layer1"
     transform="translate(-64.131247,-140.45392)">
    <path
       d="m 68.996107,156.36983 c 12.31748,5.92331 6.450181,-1.64035 33.548643,-6.29438 12.04375,-2.11547 44.85429,1.95746 49.73143,0.89982 3.89005,6.8752 -7.76396,10.52873 -55.086726,10.08661 -16.149592,-0.84618 -26.277296,-0.46111 -30.383122,-2.99968 z"
       fill="#7fb4d4"
       opacity="0.22"
       id="path1-3-3"
       style="stroke-width:0.34031"
       sodipodi:nodetypes="cccccc" />
    <path
       d="m 64.99309,149.5382 c 0.518069,-4.3677 3.885517,-7.05552 9.325237,-7.39151 15.283031,-1.3439 33.933503,-0.33598 50.511703,-0.67195 11.65655,-0.33598 20.46371,0.33597 24.8673,3.02379 3.10841,2.01587 2.84938,6.38358 -0.77711,9.0714 -5.69875,4.36771 -16.06013,4.70368 -29.78895,4.36771 -16.83723,0.33597 -35.487705,1.34391 -47.144251,-0.67196 -4.92165,-0.67195 -7.77103,-4.03173 -6.993929,-7.72748 z"
       fill="#fbfbf3"
       stroke="#111111"
       stroke-width="5.08645"
       stroke-linecap="round"
       stroke-linejoin="round"
       id="path2-2-0"
       style="stroke-width:1.47493;stroke-dasharray:none" />
    <path
       d="m 68.619571,149.20222 c 1.554209,-3.0238 6.475863,-4.03172 16.060132,-4.3677 16.060127,-0.67196 33.156407,-0.33599 49.475557,-0.33599 8.2891,0 13.21076,1.67989 13.46979,4.70369 0.25903,3.0238 -4.66261,5.37565 -12.69268,6.0476 -17.61433,1.34391 -43.258734,1.34391 -60.095971,0.33597 -4.662619,-0.33597 -6.993932,-3.35977 -6.216828,-6.38357 z"
       fill="none"
       stroke="#111111"
       stroke-width="0.442513"
       stroke-linecap="round"
       stroke-linejoin="round"
       opacity="0.22"
       id="path3-6-4" />
    <path
       d="m 65.209649,149.34017 c 0.518069,-4.36771 3.885517,-7.05553 9.325237,-7.39151 15.283034,-1.34391 33.933504,-0.33597 50.511694,-0.67195 11.65656,-0.33599 20.46373,0.33598 24.86731,3.0238 3.10841,2.01586 2.84938,6.38357 -0.77711,9.07139 -5.69875,4.36771 -16.06012,4.70368 -29.78895,4.36771 -16.83723,0.33597 -35.487706,1.3439 -47.144251,-0.67197 -4.921652,-0.67195 -7.771032,-4.03173 -6.99393,-7.72747 z"
       fill="#fbfbf3"
       stroke="#111111"
       stroke-width="5.08645"
       stroke-linecap="round"
       stroke-linejoin="round"
       id="path2-2-6-3"
       style="fill:#fbfbf3;fill-opacity:0;stroke-width:1.47493;stroke-dasharray:none" />
  </g>
</svg>
