<?xml version="1.0" encoding="UTF-8" standalone="no"?>
<!-- Created with Inkscape (http://www.inkscape.org/) -->

<svg
   width="88.839783mm"
   height="20.643888mm"
   viewBox="0 0 88.839782 20.643888"
   version="1.1"
   id="svg1"
   inkscape:export-filename="board.svg"
   inkscape:export-xdpi="96"
   inkscape:export-ydpi="96"
   xmlns:inkscape="http://www.inkscape.org/namespaces/inkscape"
   xmlns:sodipodi="http://sodipodi.sourceforge.net/DTD/sodipodi-0.dtd"
   xmlns="http://www.w3.org/2000/svg"
   xmlns:svg="http://www.w3.org/2000/svg">
  <sodipodi:namedview
     id="namedview1"
     pagecolor="#ffffff"
     bordercolor="#000000"
     borderopacity="0.25"
     inkscape:showpageshadow="2"
     inkscape:pageopacity="0.0"
     inkscape:pagecheckerboard="0"
     inkscape:deskcolor="#d1d1d1"
     inkscape:document-units="mm">
    <inkscape:page
       x="0"
       y="0"
       width="88.839783"
       height="20.643888"
       id="page2"
       margin="0"
       bleed="0" />
  </sodipodi:namedview>
  <defs
     id="defs1" />
  <g
     inkscape:label="Layer 1"
     inkscape:groupmode="layer"
     id="layer1"
     transform="translate(-64.131247,-140.45392)">
    <path
       d="m 68.996107,156.36983 c 12.31748,5.92331 6.450181,-1.64035 33.548643,-6.29438 12.04375,-2.11547 44.85429,1.95746 49.73143,0.89982 3.89005,6.8752 -7.76396,10.52873 -55.086726,10.08661 -16.149592,-0.84618 -26.277296,-0.46111 -30.383122,-2.99968 z"
       fill="#7fb4d4"
       opacity="0.22"
       id="path1-3-3"
       style="stroke-width:0.34031"
       sodipodi:nodetypes="cccccc" />
    <path
       d="m 64.99309,149.5382 c 0.518069,-4.3677 3.885517,-7.05552 9.325237,-7.39151 15.283031,-1.3439 33.933503,-0.33598 50.511703,-0.67195 11.65655,-0.33598 20.46371,0.33597 24.8673,3.02379 3.10841,2.01587 2.84938,6.38358 -0.77711,9.0714 -5.69875,4.36771 -16.06013,4.70368 -29.78895,4.36771 -16.83723,0.33597 -35.487705,1.34391 -47.144251,-0.67196 -4.92165,-0.67195 -7.77103,-4.03173 -6.993929,-7.72748 z"
       fill="#fbfbf3"
       stroke="#111111"
       stroke-width="5.08645"
       stroke-linecap="round"
       stroke-linejoin="round"
       id="path2-2-0"
       style="stroke-width:1.47493;stroke-dasharray:none" />
    <path
       d="m 68.619571,149.20222 c 1.554209,-3.0238 6.475863,-4.03172 16.060132,-4.3677 16.060127,-0.67196 33.156407,-0.33599 49.475557,-0.33599 8.2891,0 13.21076,1.67989 13.46979,4.70369 0.25903,3.0238 -4.66261,5.37565 -12.69268,6.0476 -17.61433,1.34391 -43.258734,1.34391 -60.095971,0.33597 -4.662619,-0.33597 -6.993932,-3.35977 -6.216828,-6.38357 z"
       fill="none"
       stroke="#111111"
       stroke-width="0.442513"
       stroke-linecap="round"
       stroke-linejoin="round"
       opacity="0.22"
       id="path3-6-4" />
    <path
       d="m 77.685772,145.21518 c 5.903817,-0.8581 14.431541,-0.68649 22.303302,-0.51487 6.231796,0.17163 12.135606,0.51487 16.563466,1.37297 -2.78791,0.85809 -9.67569,1.37296 -18.203426,1.37296 -8.363732,0 -15.579501,-0.51487 -20.663342,-1.20134 z"
       fill="#bfe9ff"
       opacity="0.55"
       id="path4-8-8"
       style="stroke-width:0.167764" />
    <path
       d="m 81.571292,145.50647 c 9.843306,-1.00794 21.499858,-0.67195 32.379288,-0.33597"
       fill="none"
       stroke="#ffffff"
       stroke-width="0.885023"
       stroke-linecap="round"
       opacity="0.85"
       id="path5-9-7" />
    <path
       d="m 72.312703,142.87993 1.644706,-0.37957 0.37955,1.51826 -0.126515,2.65697 v 6.83218 l -0.37955,3.4161 -1.080391,0.38955 -0.690831,-1.52825 0.253031,-4.17523 -0.126516,-5.31392 z"
       fill="#3f57c8"
       id="path6-1-5"
       style="stroke-width:0.219138"
       sodipodi:nodetypes="ccccccccccc" />
    <path
       d="m 72.818767,144.01862 0.759096,-0.37956 0.126516,1.89782 -0.126516,9.1096 -0.506064,1.51825 -0.379547,-1.13869 0.126515,-6.45263 z"
       fill="#86a2ff"
       opacity="0.42"
       id="path7-4-95"
       style="stroke-width:0.219138" />
    <path
       d="m 76.802828,142.32074 1.644708,-0.42147 0.37955,1.68591 -0.126519,2.95034 v 7.58661 l -0.379547,3.7933 -1.080392,0.43257 -0.690832,-1.69701 0.253032,-4.63625 -0.126516,-5.9007 z"
       fill="#3f57c8"
       id="path6-1-4-3"
       style="stroke-width:0.230919"
       sodipodi:nodetypes="ccccccccccc" />
    <path
       d="m 77.224383,143.20069 0.252043,-0.037 0.042,0.18498 -0.042,0.88789 -0.16803,0.14798 -0.126018,-0.11099 0.042,-0.62891 z"
       fill="#86a2ff"
       opacity="0.42"
       id="path7-4-7-2"
       style="stroke-width:0.0394216" />
    <path
       d="m 78.336289,146.45866 0.09192,-0.13163 0.01534,0.65819 -0.01534,3.1593 -0.06128,0.52654 -0.04596,-0.39491 0.01534,-2.23784 z"
       fill="#86a2ff"
       opacity="0.42"
       id="path7-4-7-1-7"
       style="stroke-width:0.0449072" />
    <path
       d="m 77.235285,154.9266 0.43885,-0.0737 0.07314,0.36835 -0.07314,1.76805 -0.292566,0.29468 -0.219427,-0.22101 0.07314,-1.25238 z"
       fill="#86a2ff"
       opacity="0.42"
       id="path7-4-7-5-3"
       style="stroke-width:0.0734052" />
    <path
       d="m 143.37251,142.31191 -1.55359,-0.37957 -0.35853,1.51827 0.11951,2.65695 v 6.8322 l 0.35853,3.41609 1.02053,0.38956 0.65256,-1.52825 -0.23901,-4.17523 0.11951,-5.31393 z"
       fill="#3f57c8"
       id="path6-1-9-9"
       style="stroke-width:0.212981"
       sodipodi:nodetypes="ccccccccccc" />
    <path
       d="m 142.89448,143.45061 -0.71705,-0.37956 -0.1195,1.89782 0.1195,9.10958 0.47803,1.51827 0.35853,-1.1387 -0.11951,-6.45262 z"
       fill="#86a2ff"
       opacity="0.42"
       id="path7-4-9-7"
       style="stroke-width:0.212981" />
    <path
       d="m 139.13113,141.75273 -1.55359,-0.42148 -0.35853,1.68591 0.1195,2.95035 v 7.5866 l 0.35853,3.7933 1.02054,0.43258 0.65256,-1.69701 -0.23901,-4.63626 0.1195,-5.90069 z"
       fill="#3f57c8"
       id="path6-1-4-9-7"
       style="stroke-width:0.224431"
       sodipodi:nodetypes="ccccccccccc" />
    <path
       d="m 138.73292,142.63268 -0.23807,-0.037 -0.0397,0.18498 0.0397,0.88788 0.15872,0.14799 0.11904,-0.11099 -0.0397,-0.62892 z"
       fill="#86a2ff"
       opacity="0.42"
       id="path7-4-7-3-9"
       style="stroke-width:0.0383143" />
    <path
       d="m 137.68262,145.89065 -0.0869,-0.13163 -0.0145,0.65819 0.0145,3.15929 0.0579,0.52655 0.0434,-0.39492 -0.0145,-2.23783 z"
       fill="#86a2ff"
       opacity="0.42"
       id="path7-4-7-1-3-5"
       style="stroke-width:0.0436459" />
    <path
       d="m 65.209649,149.34017 c 0.518069,-4.36771 3.885517,-7.05553 9.325237,-7.39151 15.283034,-1.34391 33.933504,-0.33597 50.511694,-0.67195 11.65656,-0.33599 20.46373,0.33598 24.86731,3.0238 3.10841,2.01586 2.84938,6.38357 -0.77711,9.07139 -5.69875,4.36771 -16.06012,4.70368 -29.78895,4.36771 -16.83723,0.33597 -35.487706,1.3439 -47.144251,-0.67197 -4.921652,-0.67195 -7.771032,-4.03173 -6.99393,-7.72747 z"
       fill="#fbfbf3"
       stroke="#111111"
       stroke-width="5.08645"
       stroke-linecap="round"
       stroke-linejoin="round"
       id="path2-2-6-3"
       style="fill:#fbfbf3;fill-opacity:0;stroke-width:1.47493;stroke-dasharray:none" />
    <path
       d="m 138.72262,154.35858 -0.41453,-0.0737 -0.0691,0.36835 0.0691,1.76806 0.27636,0.29467 0.20727,-0.221 -0.0691,-1.25238 z"
       fill="#86a2ff"
       opacity="0.42"
       id="path7-4-7-5-7-3"
       style="stroke-width:0.071343" />
  </g>
</svg>
