<?xml version="1.0" encoding="UTF-8" standalone="no"?>
<svg
   height="744"
   viewBox="-0.05 1.98 58.105 54.044"
   width="800"
   version="1.1"
   id="svg4"
   sodipodi:docname="controller.svg"
   inkscape:version="1.4.4 (dcaf3e7, 2026-05-05)"
   xmlns:inkscape="http://www.inkscape.org/namespaces/inkscape"
   xmlns:sodipodi="http://sodipodi.sourceforge.net/DTD/sodipodi-0.dtd"
   xmlns="http://www.w3.org/2000/svg"
   xmlns:svg="http://www.w3.org/2000/svg">
  <defs
     id="defs4" />
  <sodipodi:namedview
     id="namedview4"
     pagecolor="#ffffff"
     bordercolor="#000000"
     borderopacity="0.25"
     inkscape:showpageshadow="2"
     inkscape:pageopacity="0.0"
     inkscape:pagecheckerboard="0"
     inkscape:deskcolor="#d1d1d1"
     inkscape:zoom="0.66434422"
     inkscape:cx="446.30478"
     inkscape:cy="427.48923"
     inkscape:window-width="1470"
     inkscape:window-height="895"
     inkscape:window-x="0"
     inkscape:window-y="33"
     inkscape:window-maximized="1"
     inkscape:current-layer="svg4" />
  <path
     d="m56.811 18.884c-.437-2.145-1.596-4.05-3.125-5.568-2.196-2.18-6.175-4.304-10.781-4.304-7.03 0-13.903 0-13.903 0s-6.873 0-13.903 0c-4.606 0-8.585 2.124-10.781 4.304-1.529 1.518-2.687 3.424-3.125 5.568-.883 4.334 1.457 6.996 3.626 8.481 1.424.975 3.091 1.465 4.789 1.657 4.296.485 6.699 2.858 7.985 4.867.83 1.296 1.296 2.798 1.518 4.336 1.241 8.608 4.431 13.666 6.855 16.377 1.637 1.83 4.436 1.83 6.072 0 2.425-2.71 5.614-7.768 6.855-16.377.222-1.537.688-3.04 1.518-4.336 1.286-2.01 3.689-4.382 7.985-4.867 1.698-.192 3.365-.682 4.789-1.657 2.17-1.485 4.51-4.147 3.626-8.481z"
     fill="#cbd4d8"
     id="path1"
     inkscape:label="path1" />
  <path
     d="m 57.003,19.984 -0.039,-0.002 c 0.314,3.689 -1.798,6.028 -3.777,7.383 -1.424,0.975 -3.091,1.465 -4.789,1.657 -2.219,0.25 -3.924,1.008 -5.24,1.955 l 0.283,2.931 c 0,0 1.71,10.060817 5.753,14.047817 1.948,1.921 3.629,1.255 4.663,0.415 0.683,-0.556 1.193,-1.292 1.526,-2.108 4.544,-11.129 1.853,-25.140817 1.62,-26.278817 z"
     fill="#afb6bb"
     id="path2"
     sodipodi:nodetypes="ccscccsccc" />
  <path
     d="M 9.608,29.023 C 7.91,28.831 6.243,28.341 4.819,27.366 2.84,26.011 0.728,23.672 1.042,19.983 l -0.039,0.002 c -0.233,1.138 -2.925,15.148817 1.62,26.278817 0.333,0.815 0.843,1.552 1.526,2.108 1.033,0.84 2.715,1.506 4.663,-0.415 4.043,-3.987 5.753,-14.047817 5.753,-14.047817 l 0.283,-2.931 C 13.532,30.03 11.827,29.273 9.608,29.023 Z"
     fill="#afb6bb"
     id="path3"
     sodipodi:nodetypes="cscccccccc" />
  <path
     d="m43.003 9.012h-28l1.07-2.675c.584-1.46 1.834-2.551 3.359-2.932l1.031-.258c5.811-1.573 11.473-1.402 17.08 0l1.031.258c1.525.381 2.775 1.472 3.359 2.932z"
     fill="#afb6bb"
     id="path4" />
</svg>
