<svg version="1.1" id="Layer_1" xmlns="http://www.w3.org/2000/svg" xmlns:xlink="http://www.w3.org/1999/xlink" x="0px" y="0px"
	 width="100%" viewBox="0 0 2048 2048" enable-background="new 0 0 2048 2048" xml:space="preserve">
<path fill="#000000" opacity="1.000000" stroke="none" 
	d="
M1091.000000,2049.000000 
	C727.333313,2049.000000 364.166656,2049.000000 1.000000,2049.000000 
	C1.000000,1366.333374 1.000000,683.666687 1.000000,1.000000 
	C683.666687,1.000000 1366.333374,1.000000 2049.000000,1.000000 
	C2049.000000,683.666687 2049.000000,1366.333374 2049.000000,2049.000000 
	C1729.833374,2049.000000 1410.666626,2049.000000 1091.000000,2049.000000 
M1150.563721,703.132751 
	C1150.392090,703.139099 1150.220459,703.145386 1150.115234,702.362305 
	C1145.598267,692.848206 1141.572754,683.056641 1136.408081,673.908081 
	C1132.297974,666.627502 1126.800903,660.129272 1121.911865,653.289124 
	C1108.391968,634.373413 1094.894653,615.441467 1081.339233,596.551270 
	C1063.461060,571.637329 1045.576660,546.727600 1027.615967,521.873169 
	C1017.004822,507.189240 1006.240967,492.615662 995.226440,477.321747 
	C992.827087,474.542114 990.427734,471.762482 987.310181,468.806396 
	C985.294067,467.857056 983.355591,466.661774 981.249756,465.996185 
	C958.628967,458.846436 935.973328,451.807281 913.344482,444.683014 
	C893.310242,438.375641 873.288879,432.027405 853.277893,425.646667 
	C819.217163,414.786041 785.187805,403.826874 751.106384,393.031769 
	C737.812744,388.821106 724.414001,384.942291 711.000000,380.998779 
	C711.000000,380.998779 711.067383,380.915955 710.850647,380.293701 
	C710.212463,380.225647 709.574341,380.157623 708.286377,379.632690 
	C708.151367,379.534973 708.026733,379.414429 707.878052,379.346710 
	C707.759094,379.292511 707.610901,379.302704 707.475586,379.284332 
	C707.297852,380.864960 706.908203,382.454681 706.975464,384.024811 
	C707.584961,398.246429 708.275024,412.464630 708.940002,426.683868 
	C709.612671,441.067780 710.300232,455.451050 710.950989,469.835938 
	C711.631897,484.886292 712.265808,499.938782 712.940613,514.989441 
	C713.593140,529.541809 714.278198,544.092773 714.936890,558.644897 
	C715.610657,573.529358 716.260620,588.414856 716.938232,603.299133 
	C717.593201,617.684937 718.296143,632.068542 718.930420,646.455261 
	C719.645325,662.670532 720.269775,678.889893 721.003235,695.104248 
	C721.593872,708.160278 722.323120,721.210022 722.927368,734.265442 
	C723.631653,749.481506 724.335266,764.698242 724.910461,779.919495 
	C725.374023,792.186768 725.645874,804.461365 726.004578,816.732605 
	C726.023987,817.397888 726.060120,818.062622 726.088135,818.727600 
	C726.635864,831.773743 727.183472,844.819946 727.235840,857.453552 
	C723.424744,851.326233 719.698792,845.143921 715.788208,839.080750 
	C695.670959,807.890015 675.479614,776.747070 655.366699,745.553528 
	C639.792969,721.399841 624.333435,697.172546 608.757141,673.020569 
	C585.614990,637.137207 562.392029,601.306152 539.246948,565.424683 
	C523.045288,540.307373 506.940796,515.127380 490.748627,490.003845 
	C470.909302,459.221466 451.076050,428.434845 431.117981,397.729462 
	C426.664825,390.878357 421.703186,384.357788 416.677856,377.079529 
	C414.514160,373.213867 412.532806,369.232025 410.155975,365.502197 
	C398.383423,347.027985 386.535858,328.601349 374.642303,310.204712 
	C372.162750,306.369385 369.377258,302.731873 366.732727,299.003204 
	C366.217194,299.273285 365.701630,299.543365 365.186096,299.813446 
	C367.621155,315.967682 370.025909,332.126587 372.501587,348.274628 
	C374.254028,359.705109 376.133636,371.116089 377.900238,382.544464 
	C380.170929,397.233429 382.369568,411.933533 384.628967,426.624268 
	C386.362030,437.892609 388.179749,449.148010 389.890137,460.419739 
	C392.095825,474.955719 394.172455,489.511444 396.415466,504.041565 
	C398.507202,517.591797 400.798279,531.111328 402.902069,544.659790 
	C405.157440,559.184326 407.264282,573.731873 409.496796,588.260071 
	C411.253143,599.689148 413.135193,611.098816 414.901581,622.526367 
	C417.171997,637.214661 419.365387,651.914795 421.623718,666.604980 
	C424.033691,682.281433 426.518799,697.946411 428.900238,713.627136 
	C431.082947,727.999268 433.114136,742.394531 435.318817,756.763245 
	C437.097443,768.355042 439.085236,779.914734 440.889801,791.502747 
	C443.177063,806.190369 445.375732,820.891785 447.607239,835.588074 
	C449.715210,849.470764 451.767792,863.362122 453.936371,877.235352 
	C455.542358,887.509705 457.295135,897.761230 458.092499,908.003845 
	C448.353638,909.005066 438.608887,909.952942 428.877411,911.021179 
	C417.380615,912.283081 405.912903,913.851074 394.395264,914.860657 
	C390.373291,915.213257 386.245728,914.195312 382.157013,913.987549 
	C374.246246,913.585266 366.326752,913.356873 358.414917,912.973267 
	C353.162506,912.718567 347.913910,912.363281 342.669250,911.976196 
	C329.421082,910.998474 316.180542,909.913208 302.928070,909.000000 
	C296.023468,908.524292 289.081390,908.525513 282.194305,907.895264 
	C279.397186,907.639282 276.410126,906.767395 274.005829,905.339783 
	C256.136810,894.730286 238.432693,883.843445 220.597961,873.175415 
	C202.766373,862.509338 184.808273,852.054871 166.971298,841.397644 
	C152.450638,832.721863 138.045029,823.853821 123.555748,815.125183 
	C106.170921,804.652100 88.781746,794.185608 71.333328,783.819153 
	C63.326817,779.062256 55.174461,774.550720 47.002098,769.995117 
	C47.002098,769.995117 47.086700,769.930969 46.820976,769.272766 
	C46.200253,768.997559 45.579529,768.722351 44.652920,767.866211 
	C40.893661,765.642822 37.134399,763.419434 33.375141,761.196045 
	C33.000961,761.362061 32.626778,761.528076 32.252598,761.694092 
	C62.911480,862.453491 93.570358,963.212891 124.237457,1063.999268 
	C148.485214,1063.999268 172.304291,1064.077026 196.121521,1063.903076 
	C199.182281,1063.880859 200.953659,1064.874756 202.484146,1067.270752 
	C220.597565,1095.627075 238.727036,1123.973267 256.900421,1152.291260 
	C263.244873,1162.177368 269.721375,1171.978638 276.051971,1181.687500 
	C262.083405,1198.299927 248.451767,1214.511719 234.287521,1231.356812 
	C235.871811,1232.068604 237.015564,1232.853149 238.266144,1233.103271 
	C253.422562,1236.132812 268.580017,1239.161743 283.768890,1242.022583 
	C291.768372,1243.529419 299.829926,1244.706543 308.222321,1246.742676 
	C310.706512,1247.096680 313.190704,1247.450562 316.504730,1248.056152 
	C334.849426,1251.748535 353.182343,1255.500610 371.542236,1259.115845 
	C388.461945,1262.447632 405.401184,1265.682495 422.349579,1268.865601 
	C435.632477,1271.360352 448.965942,1273.590210 462.231323,1276.171997 
	C469.863098,1277.657349 477.404053,1279.609009 484.979523,1282.155029 
	C485.383301,1287.594360 485.655731,1293.047363 486.218414,1298.470215 
	C487.359924,1309.471802 488.696167,1320.453247 489.881592,1331.450562 
	C491.032532,1342.128174 492.064026,1352.818726 493.205048,1363.497559 
	C494.397797,1374.660400 495.467804,1385.842041 496.974609,1396.963501 
	C497.667419,1402.076782 497.939178,1408.032349 500.744812,1411.911377 
	C506.637573,1420.058716 514.004456,1427.155518 520.900879,1434.558105 
	C535.841431,1450.595093 550.865356,1466.554810 565.857605,1482.543701 
	C580.963928,1498.654053 596.075317,1514.759521 611.180603,1530.870972 
	C621.060730,1541.409424 630.930969,1551.957275 640.811157,1562.495850 
	C655.916260,1578.607178 671.028320,1594.712158 686.133423,1610.823608 
	C696.013672,1621.362183 705.883911,1631.909912 715.764038,1642.448364 
	C730.869202,1658.559814 745.981140,1674.664917 761.086304,1690.776123 
	C770.966492,1701.314697 780.836975,1711.862427 790.717224,1722.400879 
	C805.822266,1738.512329 820.934204,1754.617432 836.039368,1770.728760 
	C845.919556,1781.267212 855.788879,1791.816040 865.670715,1802.353027 
	C880.892151,1818.583740 896.074341,1834.851562 911.358765,1851.022583 
	C924.827393,1865.272705 938.471436,1879.357178 951.921631,1893.624390 
	C958.175537,1900.258301 964.102844,1907.198975 970.280701,1913.906128 
	C972.780823,1916.620605 975.554443,1919.083252 978.203613,1921.660522 
	C978.627808,1921.393677 979.052063,1921.126709 979.476257,1920.859863 
	C978.347839,1917.681763 977.219360,1914.503784 976.151001,1910.496460 
	C975.770874,1909.817261 975.390686,1909.137939 975.016663,1908.513062 
	C975.016663,1908.513062 975.062378,1908.483154 975.150879,1907.617798 
	C969.161499,1888.427124 963.230896,1869.218018 957.167236,1850.050781 
	C950.066101,1827.603638 942.832336,1805.198364 935.686218,1782.765503 
	C925.761536,1751.609863 915.872498,1720.442871 905.953430,1689.285522 
	C898.910583,1667.162720 891.856934,1645.043457 884.783997,1622.930176 
	C874.723145,1591.475220 864.657349,1560.021729 854.560364,1528.578369 
	C848.565735,1509.910034 842.497375,1491.265503 836.522217,1472.591064 
	C836.338623,1472.017090 836.823547,1471.229126 837.367737,1471.054199 
	C844.165161,1476.841919 851.018799,1482.565186 857.747498,1488.431763 
	C869.108093,1498.336670 880.342957,1508.385986 891.717102,1518.275269 
	C903.333435,1528.374756 915.099915,1538.301392 926.715942,1548.401123 
	C938.089783,1558.290649 949.306580,1568.360840 960.684509,1578.245483 
	C972.179138,1588.231812 983.840332,1598.026489 995.330444,1608.018188 
	C1006.829102,1618.017090 1018.152710,1628.217529 1029.651733,1638.216064 
	C1041.142212,1648.207275 1052.808960,1657.995605 1064.299072,1667.987305 
	C1075.797607,1677.986450 1087.132202,1688.173828 1098.613159,1698.193481 
	C1113.455811,1711.146851 1128.350220,1724.041626 1143.272827,1736.902710 
	C1146.899048,1740.028198 1150.723022,1742.924194 1155.060425,1746.411743 
	C1155.318359,1739.999634 1149.933716,1725.366211 1145.889038,1719.186768 
	C1140.330200,1703.765869 1134.934448,1688.283691 1129.174194,1672.938477 
	C1120.592163,1650.075684 1111.751343,1627.310059 1103.023560,1604.502075 
	C1095.407593,1584.599854 1087.817383,1564.687744 1080.176025,1544.795410 
	C1071.241821,1521.537354 1062.235107,1498.307129 1053.314697,1475.043701 
	C1045.215820,1453.923218 1037.200562,1432.770630 1029.130615,1411.639038 
	C1019.424316,1386.222290 1009.728516,1360.801392 999.974243,1335.403076 
	C987.809265,1303.727539 975.603210,1272.067749 963.385925,1240.412354 
	C958.726257,1228.339111 953.986755,1216.296753 950.115784,1204.163330 
	C950.614868,1204.131226 951.118835,1204.037109 951.612305,1204.075928 
	C964.059021,1205.057617 976.522888,1205.874512 988.941284,1207.136841 
	C993.691833,1207.619751 999.176758,1207.888062 1002.879639,1210.393433 
	C1015.613098,1219.008667 1027.729126,1228.539673 1040.038208,1237.778320 
	C1055.227539,1249.178711 1070.322998,1260.704468 1085.552368,1272.051025 
	C1105.750366,1287.099487 1126.077515,1301.974731 1146.275391,1317.023682 
	C1162.684326,1329.249023 1178.921631,1341.704834 1195.348633,1353.905762 
	C1215.306152,1368.729248 1235.448730,1383.304077 1255.387939,1398.151855 
	C1272.197510,1410.669189 1288.767578,1423.507812 1305.559204,1436.049438 
	C1325.738525,1451.121338 1346.058472,1466.004395 1366.283691,1481.014893 
	C1386.515503,1496.029907 1406.710693,1511.094238 1426.912354,1526.149780 
	C1447.248169,1541.305176 1467.556885,1556.497070 1487.905518,1571.635254 
	C1505.755249,1584.914551 1523.153931,1598.874512 1541.627075,1611.224487 
	C1571.371094,1631.108887 1601.796143,1649.977417 1632.006592,1669.160400 
	C1661.249390,1687.729004 1690.601196,1706.125610 1719.873291,1724.648193 
	C1744.450317,1740.199707 1768.983521,1755.820557 1793.532349,1771.416382 
	C1829.112915,1794.020752 1864.692383,1816.626831 1900.268066,1839.238892 
	C1931.162354,1858.875488 1962.031860,1878.551392 1992.955444,1898.141846 
	C2000.501831,1902.922485 2008.217041,1907.436890 2016.214111,1912.672729 
	C2017.061523,1913.018066 2017.909058,1913.363525 2019.302490,1913.931396 
	C2018.744629,1912.637329 2018.480347,1911.743286 2018.010254,1910.975464 
	C2006.655273,1892.428589 1995.277954,1873.895264 1983.905518,1855.359009 
	C1971.942871,1835.860596 1959.969727,1816.368286 1948.022095,1796.860718 
	C1935.736450,1776.801025 1923.521606,1756.697998 1911.192017,1736.665527 
	C1898.523438,1716.082153 1885.712036,1695.586792 1873.038940,1675.006226 
	C1858.338135,1651.132690 1843.685547,1627.229126 1829.077148,1603.298950 
	C1817.833252,1584.879883 1806.772705,1566.348511 1795.480225,1547.959473 
	C1782.748047,1527.226318 1769.909546,1506.557739 1757.004028,1485.931885 
	C1740.422241,1459.430298 1724.400146,1432.545288 1706.909912,1406.654297 
	C1685.640381,1375.169312 1663.086670,1344.552002 1641.100098,1313.551025 
	C1618.368164,1281.499146 1595.674072,1249.420532 1572.917358,1217.386230 
	C1558.770264,1197.471802 1544.527954,1177.624878 1530.347534,1157.734131 
	C1521.334717,1145.092285 1512.284668,1132.475952 1503.391357,1119.750366 
	C1498.414551,1112.629272 1493.723755,1105.308472 1489.643433,1098.092773 
	C1491.534302,1099.070557 1493.543335,1099.872803 1495.298706,1101.052368 
	C1526.973877,1122.338989 1558.617310,1143.672974 1590.270020,1164.993042 
	C1627.154053,1189.836914 1664.028931,1214.694458 1700.929321,1239.513916 
	C1736.177246,1263.221802 1771.458862,1286.879395 1806.713989,1310.576416 
	C1831.506226,1327.240356 1856.241333,1343.989380 1881.079956,1360.583984 
	C1890.571045,1366.925049 1900.278809,1372.941772 1910.245483,1379.641357 
	C1912.154907,1380.383301 1914.064453,1381.125244 1916.754761,1381.975220 
	C1935.367554,1388.794678 1953.980347,1395.614258 1972.593140,1402.433716 
	C1972.927246,1401.969482 1973.261230,1401.505127 1973.595337,1401.040771 
	C1969.359741,1395.710327 1965.063965,1390.426392 1960.899292,1385.041138 
	C1942.836914,1361.684937 1924.804321,1338.305786 1906.777466,1314.922119 
	C1891.155029,1294.657593 1875.564697,1274.368164 1859.941895,1254.103882 
	C1841.914429,1230.720459 1823.867065,1207.352417 1805.828003,1183.977905 
	C1787.787109,1160.600830 1769.721924,1137.242554 1751.712646,1113.841187 
	C1738.611572,1096.817383 1725.634766,1079.697876 1712.511108,1062.691528 
	C1695.269287,1040.348633 1677.884399,1018.115967 1660.660156,995.759583 
	C1644.346802,974.585510 1628.146484,953.324219 1611.958252,932.054138 
	C1611.036987,930.843933 1610.675293,929.208008 1610.684570,928.180420 
	C1615.548706,930.807495 1615.844238,930.608643 1616.054321,925.506592 
	C1616.670898,910.532898 1617.381104,895.563171 1618.033203,880.590942 
	C1618.714233,864.954590 1619.367798,849.317017 1620.038208,833.680176 
	C1620.701416,818.209351 1621.487305,802.742737 1622.003418,787.266968 
	C1622.482910,772.882507 1622.677734,758.488525 1623.868774,744.042969 
	C1635.403809,744.692505 1646.937012,745.377930 1658.476562,745.934570 
	C1659.593750,745.988403 1660.749390,745.244446 1661.887207,744.870911 
	C1661.171509,743.957153 1660.648071,742.685913 1659.711792,742.182922 
	C1643.915649,733.697388 1628.085083,725.275879 1612.227905,716.904724 
	C1594.351440,707.467590 1576.439941,698.096680 1558.545532,688.693787 
	C1537.320679,677.540894 1516.088257,666.402649 1494.877197,655.223633 
	C1478.868774,646.786682 1462.901367,638.271912 1446.877930,629.863831 
	C1445.196289,628.981445 1443.271118,628.099915 1441.437744,628.053467 
	C1434.953369,627.889465 1428.459839,628.088562 1421.211914,627.740662 
	C1419.488647,627.482178 1417.772461,627.069580 1416.041016,626.990845 
	C1406.387939,626.551636 1396.731323,626.193481 1386.996582,625.850342 
	C1386.996582,625.850342 1387.063843,625.910156 1386.855225,625.297974 
	C1386.238647,625.142883 1385.621948,624.987793 1384.853516,624.168945 
	C1383.062988,621.620544 1381.264893,619.077393 1379.483032,616.522888 
	C1358.083252,585.843323 1336.754761,555.113708 1315.269409,524.494202 
	C1292.084229,491.452179 1268.732056,458.527374 1245.492676,425.523376 
	C1229.811646,403.253723 1214.171753,380.955109 1198.563965,358.634216 
	C1177.033569,327.843689 1155.610107,296.978363 1134.030762,266.222260 
	C1113.298462,236.673386 1092.394531,207.244949 1071.628540,177.719559 
	C1061.433105,163.223541 1051.393921,148.617615 1041.250366,134.084900 
	C1038.879395,130.687973 1036.371948,127.386253 1033.927368,124.040710 
	C1033.276855,124.339188 1032.626343,124.637657 1031.975830,124.936134 
	C1034.624512,133.401093 1037.273315,141.866058 1039.901855,151.087006 
	C1041.518921,156.467484 1043.155640,161.842178 1044.749878,167.229431 
	C1051.924438,191.474716 1059.017456,215.744385 1066.284668,239.961792 
	C1069.605591,251.028351 1073.335083,261.971710 1076.742554,273.013123 
	C1079.705688,282.614380 1082.481567,292.273468 1085.330566,301.909882 
	C1087.515015,309.298523 1089.696777,316.687958 1091.857788,324.083496 
	C1096.060303,338.466492 1100.186035,352.872284 1104.465210,367.232391 
	C1106.805054,375.084503 1109.535645,382.820801 1111.840698,390.682465 
	C1116.986328,408.231598 1121.889404,425.852020 1127.066772,443.391571 
	C1129.432861,451.407043 1132.389771,459.247772 1134.771973,467.258911 
	C1140.322754,485.925293 1145.687622,504.646942 1150.708252,523.825073 
	C1146.070190,520.297546 1141.341064,516.882690 1136.809814,513.222900 
	C1117.299072,497.464874 1097.863403,481.613800 1078.356323,465.851013 
	C1074.873535,463.036713 1071.182861,460.479584 1067.588135,457.803680 
	C1067.267212,458.130310 1066.946411,458.456940 1066.625488,458.783569 
	C1069.398804,463.256042 1072.172119,467.728546 1074.899170,472.824585 
	C1075.260132,473.238495 1075.620972,473.652405 1075.984253,474.005371 
	C1075.984253,474.005371 1075.925171,474.022217 1075.915405,474.766113 
	C1077.892944,478.500549 1079.821411,482.261932 1081.857056,485.964447 
	C1088.607910,498.243439 1095.333618,510.536896 1102.186035,522.759155 
	C1114.296997,544.361206 1126.514404,565.903564 1138.644409,587.494995 
	C1143.018555,595.280884 1147.269165,603.136108 1151.955078,611.647949 
	C1143.884277,620.266479 1135.415771,629.131470 1127.225220,638.246216 
	C1125.978516,639.633545 1125.008911,642.599976 1125.640259,644.115540 
	C1128.450562,650.859863 1131.889526,657.342224 1134.980957,664.682861 
	C1140.618286,676.686951 1146.279297,688.680237 1151.822632,700.727600 
	C1152.095947,701.321716 1151.343628,702.387756 1150.563721,703.132751 
z"/>
<path fill="#1A1516" opacity="1.000000" stroke="none" 
	d="
M458.982544,908.022888 
	C457.295135,897.761230 455.542358,887.509705 453.936371,877.235352 
	C451.767792,863.362122 449.715210,849.470764 447.607239,835.588074 
	C445.375732,820.891785 443.177063,806.190369 440.889801,791.502747 
	C439.085236,779.914734 437.097443,768.355042 435.318817,756.763245 
	C433.114136,742.394531 431.082947,727.999268 428.900238,713.627136 
	C426.518799,697.946411 424.033691,682.281433 421.623718,666.604980 
	C419.365387,651.914795 417.171997,637.214661 414.901581,622.526367 
	C413.135193,611.098816 411.253143,599.689148 409.496796,588.260071 
	C407.264282,573.731873 405.157440,559.184326 402.902069,544.659790 
	C400.798279,531.111328 398.507202,517.591797 396.415466,504.041565 
	C394.172455,489.511444 392.095825,474.955719 389.890137,460.419739 
	C388.179749,449.148010 386.362030,437.892609 384.628967,426.624268 
	C382.369568,411.933533 380.170929,397.233429 377.900238,382.544464 
	C376.133636,371.116089 374.254028,359.705109 372.501587,348.274628 
	C370.025909,332.126587 367.621155,315.967682 365.186096,299.813446 
	C365.701630,299.543365 366.217194,299.273285 366.732727,299.003204 
	C369.377258,302.731873 372.162750,306.369385 374.642303,310.204712 
	C386.535858,328.601349 398.383423,347.027985 410.155975,365.502197 
	C412.532806,369.232025 414.514160,373.213867 416.881470,377.772278 
	C421.823730,387.438324 426.472748,396.460358 431.316101,405.376801 
	C455.559692,450.008240 479.868225,494.604370 504.125763,539.228271 
	C519.555725,567.613159 534.909790,596.039307 550.345703,624.420898 
	C574.294312,668.454712 598.301025,712.456726 622.249268,756.490662 
	C637.605347,784.725952 652.873901,813.008728 668.228821,841.244568 
	C694.403076,889.375793 720.640625,937.472595 746.801270,985.611206 
	C764.613281,1018.387512 782.317505,1051.222412 800.109863,1084.009277 
	C825.050354,1129.968628 850.033875,1175.904663 874.987427,1221.856812 
	C890.087036,1249.662842 905.146057,1277.490723 920.256836,1305.290649 
	C944.512939,1349.915405 968.817139,1394.514038 993.062134,1439.144897 
	C1010.789307,1471.777710 1028.433838,1504.455566 1046.151611,1537.093506 
	C1071.019531,1582.902710 1095.897705,1628.706421 1120.821777,1674.484985 
	C1129.097900,1689.686035 1137.529175,1704.802490 1145.889526,1719.957520 
	C1149.933716,1725.366211 1155.318359,1739.999634 1155.060425,1746.411743 
	C1150.723022,1742.924194 1146.899048,1740.028198 1143.272827,1736.902710 
	C1128.350220,1724.041626 1113.455811,1711.146851 1098.613159,1698.193481 
	C1087.132202,1688.173828 1075.797607,1677.986450 1064.299072,1667.987305 
	C1052.808960,1657.995605 1041.142212,1648.207275 1029.651733,1638.216064 
	C1018.152710,1628.217529 1006.829102,1618.017090 995.330444,1608.018188 
	C983.840332,1598.026489 972.179138,1588.231812 960.684509,1578.245483 
	C949.306580,1568.360840 938.089783,1558.290649 926.715942,1548.401123 
	C915.099915,1538.301392 903.333435,1528.374756 891.717102,1518.275269 
	C880.342957,1508.385986 869.108093,1498.336670 857.747498,1488.431763 
	C851.018799,1482.565186 844.165161,1476.841919 837.142212,1470.422974 
	C836.405823,1469.148682 835.983765,1468.401611 835.371216,1467.877319 
	C814.779297,1450.260010 794.066711,1432.782104 773.598145,1415.022827 
	C760.028687,1403.249634 746.929016,1390.935791 733.396790,1379.118530 
	C714.371887,1362.504883 695.147034,1346.119995 675.993225,1329.654175 
	C670.375061,1324.824463 664.707947,1320.051758 658.809814,1315.037476 
	C658.504517,1316.012573 658.193726,1316.473877 658.258606,1316.874512 
	C661.228394,1335.231567 664.119995,1353.602661 667.295898,1371.924316 
	C668.277832,1377.589111 668.882385,1383.780396 671.634033,1388.604370 
	C693.655151,1427.210327 716.147217,1465.547852 738.501038,1503.963989 
	C757.254639,1536.192871 776.021240,1568.414185 794.773010,1600.644165 
	C812.688171,1631.435913 830.592651,1662.233765 848.499512,1693.030396 
	C868.497803,1727.423828 888.499084,1761.815308 908.488525,1796.213867 
	C926.805725,1827.734619 945.055664,1859.294678 963.464355,1890.761841 
	C967.024719,1896.847778 971.181030,1902.585083 975.062378,1908.483154 
	C975.062378,1908.483154 975.016663,1908.513062 974.914795,1908.903198 
	C975.238953,1909.970825 975.664917,1910.648193 976.090881,1911.325684 
	C977.219360,1914.503784 978.347839,1917.681763 979.476257,1920.859863 
	C979.052063,1921.126709 978.627808,1921.393677 978.203613,1921.660522 
	C975.554443,1919.083252 972.780823,1916.620605 970.280701,1913.906128 
	C964.102844,1907.198975 958.175537,1900.258301 951.921631,1893.624390 
	C938.471436,1879.357178 924.827393,1865.272705 911.358765,1851.022583 
	C896.074341,1834.851562 880.892151,1818.583740 865.670715,1802.353027 
	C855.788879,1791.816040 845.919556,1781.267212 836.039368,1770.728760 
	C820.934204,1754.617432 805.822266,1738.512329 790.717224,1722.400879 
	C780.836975,1711.862427 770.966492,1701.314697 761.086304,1690.776123 
	C745.981140,1674.664917 730.869202,1658.559814 715.764038,1642.448364 
	C705.883911,1631.909912 696.013672,1621.362183 686.133423,1610.823608 
	C671.028320,1594.712158 655.916260,1578.607178 640.811157,1562.495850 
	C630.930969,1551.957275 621.060730,1541.409424 611.180603,1530.870972 
	C596.075317,1514.759521 580.963928,1498.654053 565.857605,1482.543701 
	C550.865356,1466.554810 535.841431,1450.595093 520.900879,1434.558105 
	C514.004456,1427.155518 506.637573,1420.058716 500.744812,1411.911377 
	C497.939178,1408.032349 497.667419,1402.076782 496.974609,1396.963501 
	C495.467804,1385.842041 494.397797,1374.660400 493.205048,1363.497559 
	C492.064026,1352.818726 491.032532,1342.128174 489.881592,1331.450562 
	C488.696167,1320.453247 487.359924,1309.471802 486.218414,1298.470215 
	C485.655731,1293.047363 485.383301,1287.594360 485.204529,1281.480469 
	C486.223541,1280.804932 487.042419,1280.674316 487.807953,1280.821533 
	C535.791382,1290.043457 583.770447,1299.288330 631.750000,1308.530396 
	C639.562744,1310.035400 647.376038,1311.537354 654.978821,1313.000244 
	C652.028931,1308.098267 649.013062,1303.770874 646.676270,1299.103394 
	C586.750854,1179.408691 526.897827,1059.677490 467.014252,939.961670 
	C466.131226,938.196350 465.021118,936.544678 463.878479,934.491943 
	C462.154175,925.436890 460.568359,916.729858 458.982544,908.022888 
z"/>
<path fill="#DCDCD4" opacity="1.000000" stroke="none" 
	d="
M1488.904053,1098.077637 
	C1493.723755,1105.308472 1498.414551,1112.629272 1503.391357,1119.750366 
	C1512.284668,1132.475952 1521.334717,1145.092285 1530.347534,1157.734131 
	C1544.527954,1177.624878 1558.770264,1197.471802 1572.917358,1217.386230 
	C1595.674072,1249.420532 1618.368164,1281.499146 1641.100098,1313.551025 
	C1663.086670,1344.552002 1685.640381,1375.169312 1706.909912,1406.654297 
	C1724.400146,1432.545288 1740.422241,1459.430298 1757.004028,1485.931885 
	C1769.909546,1506.557739 1782.748047,1527.226318 1795.480225,1547.959473 
	C1806.772705,1566.348511 1817.833252,1584.879883 1829.077148,1603.298950 
	C1843.685547,1627.229126 1858.338135,1651.132690 1873.038940,1675.006226 
	C1885.712036,1695.586792 1898.523438,1716.082153 1911.192017,1736.665527 
	C1923.521606,1756.697998 1935.736450,1776.801025 1948.022095,1796.860718 
	C1959.969727,1816.368286 1971.942871,1835.860596 1983.905518,1855.359009 
	C1995.277954,1873.895264 2006.655273,1892.428589 2018.010254,1910.975464 
	C2018.480347,1911.743286 2018.744629,1912.637329 2019.302490,1913.931396 
	C2017.909058,1913.363525 2017.061523,1913.018066 2016.087402,1912.021973 
	C2009.479004,1905.264038 2003.574951,1898.361694 1996.428467,1893.169556 
	C1895.784302,1820.047974 1794.965210,1747.167358 1694.208374,1674.200928 
	C1684.907837,1667.465576 1674.945679,1661.387695 1666.654907,1653.559570 
	C1635.647583,1624.282593 1605.204590,1594.407715 1574.556030,1564.750854 
	C1504.159668,1496.632568 1433.763916,1428.514038 1363.396729,1360.365723 
	C1361.987183,1359.000610 1360.766602,1357.370728 1359.737061,1355.692993 
	C1329.346924,1306.173218 1298.979614,1256.639404 1268.635132,1207.091797 
	C1226.988281,1139.089111 1185.362793,1071.073486 1143.935791,1002.762207 
	C1145.148071,1001.902039 1146.109985,1001.240479 1147.164062,1000.799194 
	C1163.729980,993.864319 1180.298462,986.935364 1196.885132,980.050293 
	C1218.385498,971.125488 1239.879761,962.185303 1261.423828,953.366943 
	C1269.705688,949.977112 1269.584351,950.198975 1266.019775,941.897400 
	C1263.082642,935.057068 1259.751221,928.206543 1258.115967,921.014587 
	C1242.943848,854.290039 1228.088013,787.493469 1213.217529,720.700623 
	C1212.673584,718.257812 1212.924316,715.638062 1213.014404,713.370361 
	C1213.450684,713.882141 1213.708496,714.101990 1213.899414,714.369629 
	C1257.158936,775.007324 1300.441406,835.628479 1343.659912,896.295349 
	C1379.879395,947.137451 1415.925537,998.103394 1452.259888,1048.863159 
	C1463.680054,1064.817627 1475.785156,1080.281982 1487.351562,1096.191772 
	C1487.731079,1096.980347 1488.336060,1097.547852 1488.953613,1098.084473 
	C1488.966309,1098.053589 1488.904053,1098.077637 1488.904053,1098.077637 
M1347.531494,936.211914 
	C1323.023560,925.112915 1298.520996,914.001709 1273.991577,902.950623 
	C1272.746460,902.389587 1271.268311,902.345947 1270.266968,901.622864 
	C1269.971924,901.592346 1269.677002,901.561829 1269.381958,901.531250 
	C1269.595215,901.681458 1269.808594,901.831604 1270.201660,902.630920 
	C1282.178955,913.484802 1294.174805,924.318420 1306.111206,935.217041 
	C1307.687500,936.656250 1309.211792,938.270874 1310.332520,940.070496 
	C1316.668335,950.243225 1322.978516,960.435974 1329.018921,970.784424 
	C1330.015015,972.490967 1330.298340,975.183716 1329.768677,977.105774 
	C1328.058228,983.311462 1325.814819,989.370178 1323.934937,995.011230 
	C1327.673462,998.099426 1330.896240,1000.938965 1334.327637,1003.498718 
	C1335.515747,1004.385010 1337.498169,1005.364319 1338.648438,1004.961365 
	C1348.377197,1001.553345 1358.053345,997.974365 1367.616455,994.126709 
	C1370.537598,992.951477 1373.243286,974.989563 1371.061768,971.140869 
	C1371.059570,969.143311 1371.076782,967.145569 1371.052124,965.148315 
	C1370.863892,949.889099 1362.701660,939.881592 1347.531494,936.211914 
M1255.796143,1066.765747 
	C1266.679443,1068.091553 1277.574585,1069.328857 1288.439331,1070.792236 
	C1292.122070,1071.288452 1294.510742,1070.778564 1296.332886,1066.912598 
	C1301.435547,1056.086304 1307.046265,1045.499390 1312.458130,1034.818848 
	C1317.255371,1025.350952 1322.054932,1015.884033 1327.304199,1005.527527 
	C1324.855957,1006.076355 1323.283447,1006.359680 1321.749878,1006.783936 
	C1311.830811,1009.528381 1301.856201,1012.098694 1292.040649,1015.175781 
	C1288.436157,1016.305786 1286.203003,1015.452087 1283.645508,1013.031311 
	C1272.879150,1002.839966 1261.873535,992.901062 1251.133179,982.682800 
	C1248.460693,980.140198 1246.217407,979.657471 1242.782593,981.155457 
	C1225.414062,988.730652 1207.935791,996.053833 1190.505981,1003.489136 
	C1188.896851,1004.175476 1187.359619,1005.029968 1185.216675,1006.089294 
	C1198.109497,1017.734009 1210.502075,1028.927002 1223.302612,1040.488403 
	C1208.114136,1046.152344 1193.765869,1051.503052 1179.417480,1056.853760 
	C1188.255249,1058.874146 1196.798584,1059.929077 1205.349365,1060.921265 
	C1221.865112,1062.837646 1238.385010,1064.718506 1255.796143,1066.765747 
z"/>
<path fill="#16171E" opacity="1.000000" stroke="none" 
	d="
M1487.576904,1095.970581 
	C1475.785156,1080.281982 1463.680054,1064.817627 1452.259888,1048.863159 
	C1415.925537,998.103394 1379.879395,947.137451 1343.659912,896.295349 
	C1300.441406,835.628479 1257.158936,775.007324 1213.899414,714.369629 
	C1213.708496,714.101990 1213.450684,713.882141 1212.910400,713.049316 
	C1210.065186,708.935120 1207.533691,705.411621 1204.927002,701.522278 
	C1204.225098,699.094543 1203.591064,697.034729 1202.972534,694.970276 
	C1191.795410,657.666992 1180.620117,620.363098 1169.312012,582.674316 
	C1166.489990,573.220581 1163.867798,564.131226 1161.093506,555.088562 
	C1157.840576,544.486572 1154.455566,533.925171 1151.127808,523.346191 
	C1145.687622,504.646942 1140.322754,485.925293 1134.771973,467.258911 
	C1132.389771,459.247772 1129.432861,451.407043 1127.066772,443.391571 
	C1121.889404,425.852020 1116.986328,408.231598 1111.840698,390.682465 
	C1109.535645,382.820801 1106.805054,375.084503 1104.465210,367.232391 
	C1100.186035,352.872284 1096.060303,338.466492 1091.857788,324.083496 
	C1089.696777,316.687958 1087.515015,309.298523 1085.330566,301.909882 
	C1082.481567,292.273468 1079.705688,282.614380 1076.742554,273.013123 
	C1073.335083,261.971710 1069.605591,251.028351 1066.284668,239.961792 
	C1059.017456,215.744385 1051.924438,191.474716 1044.749878,167.229431 
	C1043.155640,161.842178 1041.518921,156.467484 1039.994141,150.419891 
	C1040.132690,149.591553 1040.156860,149.419174 1040.231323,149.272308 
	C1040.303955,149.128967 1040.427979,149.011673 1040.529541,148.882996 
	C1041.286987,149.643204 1042.176392,150.310959 1042.783081,151.176758 
	C1080.028564,204.334641 1117.250366,257.509155 1154.475708,310.681122 
	C1175.570557,340.812622 1196.659180,370.948608 1217.766602,401.071320 
	C1251.768066,449.595337 1285.801758,498.096802 1319.785645,546.633301 
	C1341.741577,577.991516 1363.600342,609.417786 1385.560059,640.773376 
	C1424.132935,695.850159 1462.770874,750.881409 1501.340698,805.960327 
	C1525.777344,840.856628 1550.118896,875.819641 1574.543823,910.724121 
	C1589.333740,931.859741 1604.224243,952.925049 1619.029419,974.050110 
	C1651.601318,1020.525818 1684.162476,1067.009033 1716.701050,1113.508057 
	C1761.835938,1178.007812 1806.943481,1242.526489 1852.069946,1307.032104 
	C1859.511230,1317.668823 1866.385620,1328.775879 1874.604980,1338.775513 
	C1884.724365,1351.086914 1896.002686,1362.443726 1906.711670,1374.274780 
	C1907.989746,1375.686768 1908.839722,1377.486206 1909.887939,1379.106201 
	C1900.278809,1372.941772 1890.571045,1366.925049 1881.079956,1360.583984 
	C1856.241333,1343.989380 1831.506226,1327.240356 1806.713989,1310.576416 
	C1771.458862,1286.879395 1736.177246,1263.221802 1700.929321,1239.513916 
	C1664.028931,1214.694458 1627.154053,1189.836914 1590.270020,1164.993042 
	C1558.617310,1143.672974 1526.973877,1122.338989 1495.298706,1101.052368 
	C1493.543335,1099.872803 1491.534302,1099.070557 1489.273682,1098.085205 
	C1488.904053,1098.077637 1488.966309,1098.053589 1488.938232,1097.811523 
	C1488.465576,1097.036499 1488.021240,1096.503540 1487.576904,1095.970581 
z"/>
<path fill="#915630" opacity="1.000000" stroke="none" 
	d="
M1143.728149,1003.063416 
	C1185.362793,1071.073486 1226.988281,1139.089111 1268.635132,1207.091797 
	C1298.979614,1256.639404 1329.346924,1306.173218 1359.737061,1355.692993 
	C1360.766602,1357.370728 1361.987183,1359.000610 1363.396729,1360.365723 
	C1433.763916,1428.514038 1504.159668,1496.632568 1574.556030,1564.750854 
	C1605.204590,1594.407715 1635.647583,1624.282593 1666.654907,1653.559570 
	C1674.945679,1661.387695 1684.907837,1667.465576 1694.208374,1674.200928 
	C1794.965210,1747.167358 1895.784302,1820.047974 1996.428467,1893.169556 
	C2003.574951,1898.361694 2009.479004,1905.264038 2015.907715,1911.722412 
	C2008.217041,1907.436890 2000.501831,1902.922485 1992.955444,1898.141846 
	C1962.031860,1878.551392 1931.162354,1858.875488 1900.268066,1839.238892 
	C1864.692383,1816.626831 1829.112915,1794.020752 1793.532349,1771.416382 
	C1768.983521,1755.820557 1744.450317,1740.199707 1719.873291,1724.648193 
	C1690.601196,1706.125610 1661.249390,1687.729004 1632.006592,1669.160400 
	C1601.796143,1649.977417 1571.371094,1631.108887 1541.627075,1611.224487 
	C1523.153931,1598.874512 1505.755249,1584.914551 1487.905518,1571.635254 
	C1467.556885,1556.497070 1447.248169,1541.305176 1426.912354,1526.149780 
	C1406.710693,1511.094238 1386.515503,1496.029907 1366.283691,1481.014893 
	C1346.058472,1466.004395 1325.738525,1451.121338 1305.559204,1436.049438 
	C1288.767578,1423.507812 1272.197510,1410.669189 1255.387939,1398.151855 
	C1235.448730,1383.304077 1215.306152,1368.729248 1195.348633,1353.905762 
	C1178.921631,1341.704834 1162.684326,1329.249023 1146.275391,1317.023682 
	C1126.077515,1301.974731 1105.750366,1287.099487 1085.552368,1272.051025 
	C1070.322998,1260.704468 1055.227539,1249.178711 1040.038208,1237.778320 
	C1027.729126,1228.539673 1015.613098,1219.008667 1002.879639,1210.393433 
	C999.176758,1207.888062 993.691833,1207.619751 988.941284,1207.136841 
	C976.522888,1205.874512 964.059021,1205.057617 951.612305,1204.075928 
	C951.118835,1204.037109 950.614868,1204.131226 949.438599,1203.932861 
	C947.653198,1201.657104 946.665588,1199.535156 945.417603,1197.579102 
	C935.650513,1182.271362 925.867126,1166.973999 916.026184,1151.713745 
	C861.311584,1066.868042 806.565674,982.042664 751.884521,897.175537 
	C748.311951,891.630798 745.189941,885.795715 742.264343,880.082214 
	C747.943359,881.492676 753.262695,882.765442 758.481628,884.365845 
	C785.784485,892.737976 813.039673,901.265991 840.353577,909.601746 
	C877.056335,920.802979 913.811096,931.833923 950.517944,943.021912 
	C977.495422,951.244568 1004.420227,959.640076 1031.389771,967.888611 
	C1056.637817,975.610596 1081.899414,983.288147 1107.183838,990.889587 
	C1118.783203,994.376831 1130.451660,997.634888 1142.315308,1001.150513 
	C1142.937256,1001.890564 1143.332642,1002.476990 1143.728149,1003.063416 
M1011.662231,1055.607666 
	C1000.345520,1073.577881 1004.419617,1092.625732 1015.098694,1104.514282 
	C1032.232300,1123.588501 1057.930664,1122.343262 1075.996704,1101.925903 
	C1082.335449,1100.605347 1088.714355,1099.448853 1094.999390,1097.908813 
	C1099.476807,1096.811646 1104.263428,1095.947510 1108.158081,1093.682617 
	C1123.254028,1084.903809 1138.052246,1075.612671 1152.943481,1066.483032 
	C1153.773926,1065.973755 1154.442627,1065.200684 1155.824829,1063.992432 
	C1135.551514,1063.992432 1116.250854,1064.055786 1096.952026,1063.902222 
	C1094.833130,1063.885498 1092.245483,1063.181641 1090.688965,1061.847168 
	C1081.093018,1053.620972 1071.624878,1045.235962 1062.373413,1036.625488 
	C1060.337769,1034.730957 1058.713867,1031.886353 1057.979248,1029.185669 
	C1053.661499,1013.312012 1049.671753,997.349243 1045.549316,981.422302 
	C1044.859497,978.757568 1044.060791,976.121094 1042.947632,972.180359 
	C1041.549683,974.987610 1040.729614,976.552795 1039.980713,978.151428 
	C1033.208008,992.610291 1026.941406,1007.334412 1019.522644,1021.453247 
	C1013.908875,1032.136841 1011.476257,1043.124634 1011.662231,1055.607666 
z"/>
<path fill="#915530" opacity="1.000000" stroke="none" 
	d="
M307.863464,1246.032471 
	C299.829926,1244.706543 291.768372,1243.529419 283.768890,1242.022583 
	C268.580017,1239.161743 253.422562,1236.132812 238.266144,1233.103271 
	C237.015564,1232.853149 235.871811,1232.068604 234.287521,1231.356812 
	C248.451767,1214.511719 262.083405,1198.299927 276.051971,1181.687500 
	C269.721375,1171.978638 263.244873,1162.177368 256.900421,1152.291260 
	C238.727036,1123.973267 220.597565,1095.627075 202.484146,1067.270752 
	C200.953659,1064.874756 199.182281,1063.880859 196.121521,1063.903076 
	C172.304291,1064.077026 148.485214,1063.999268 124.237457,1063.999268 
	C93.570358,963.212891 62.911480,862.453491 32.252598,761.694092 
	C32.626778,761.528076 33.000961,761.362061 33.375141,761.196045 
	C37.134399,763.419434 40.893661,765.642822 45.024300,768.510132 
	C45.959354,769.413086 46.523029,769.671997 47.086700,769.930969 
	C47.086700,769.930969 47.002098,769.995117 46.745914,770.230469 
	C47.712749,772.033020 48.855202,773.671631 50.170437,775.157166 
	C96.963234,828.008667 143.756592,880.859680 190.642242,933.628784 
	C192.317841,935.514709 194.762299,936.965637 197.126480,937.954834 
	C238.077850,955.089600 279.075073,972.114624 320.057556,989.175110 
	C343.829407,999.070923 367.592804,1008.987000 391.518951,1018.960205 
	C402.865692,1006.302490 414.073364,993.799927 425.515839,981.540894 
	C425.905579,981.948547 426.060486,982.112488 426.161621,982.631287 
	C425.942688,983.456604 425.811035,983.942139 425.607819,984.395508 
	C391.519165,1060.461548 357.441620,1136.532471 323.314087,1212.580933 
	C318.285675,1223.786011 313.019562,1234.884644 307.863464,1246.032471 
z"/>
<path fill="#1F326B" opacity="1.000000" stroke="none" 
	d="
M741.858337,880.095703 
	C745.189941,885.795715 748.311951,891.630798 751.884521,897.175537 
	C806.565674,982.042664 861.311584,1066.868042 916.026184,1151.713745 
	C925.867126,1166.973999 935.650513,1182.271362 945.417603,1197.579102 
	C946.665588,1199.535156 947.653198,1201.657104 949.022583,1203.971191 
	C953.986755,1216.296753 958.726257,1228.339111 963.385925,1240.412354 
	C975.603210,1272.067749 987.809265,1303.727539 999.974243,1335.403076 
	C1009.728516,1360.801392 1019.424316,1386.222290 1029.130615,1411.639038 
	C1037.200562,1432.770630 1045.215820,1453.923218 1053.314697,1475.043701 
	C1062.235107,1498.307129 1071.241821,1521.537354 1080.176025,1544.795410 
	C1087.817383,1564.687744 1095.407593,1584.599854 1103.023560,1604.502075 
	C1111.751343,1627.310059 1120.592163,1650.075684 1129.174194,1672.938477 
	C1134.934448,1688.283691 1140.330200,1703.765869 1145.889282,1719.572144 
	C1137.529175,1704.802490 1129.097900,1689.686035 1120.821777,1674.484985 
	C1095.897705,1628.706421 1071.019531,1582.902710 1046.151611,1537.093506 
	C1028.433838,1504.455566 1010.789307,1471.777710 993.062134,1439.144897 
	C968.817139,1394.514038 944.512939,1349.915405 920.256836,1305.290649 
	C905.146057,1277.490723 890.087036,1249.662842 874.987427,1221.856812 
	C850.033875,1175.904663 825.050354,1129.968628 800.109863,1084.009277 
	C782.317505,1051.222412 764.613281,1018.387512 746.801270,985.611206 
	C720.640625,937.472595 694.403076,889.375793 668.228821,841.244568 
	C652.873901,813.008728 637.605347,784.725952 622.249268,756.490662 
	C598.301025,712.456726 574.294312,668.454712 550.345703,624.420898 
	C534.909790,596.039307 519.555725,567.613159 504.125763,539.228271 
	C479.868225,494.604370 455.559692,450.008240 431.316101,405.376801 
	C426.472748,396.460358 421.823730,387.438324 417.030396,378.075012 
	C421.703186,384.357788 426.664825,390.878357 431.117981,397.729462 
	C451.076050,428.434845 470.909302,459.221466 490.748627,490.003845 
	C506.940796,515.127380 523.045288,540.307373 539.246948,565.424683 
	C562.392029,601.306152 585.614990,637.137207 608.757141,673.020569 
	C624.333435,697.172546 639.792969,721.399841 655.366699,745.553528 
	C675.479614,776.747070 695.670959,807.890015 715.788208,839.080750 
	C719.698792,845.143921 723.424744,851.326233 727.632690,858.011475 
	C730.318054,862.566528 732.606628,866.563782 734.971252,870.853638 
	C737.028076,874.100342 739.008850,877.054443 741.230286,880.114380 
	C741.639893,880.173401 741.808777,880.126526 741.944397,880.058594 
	C741.911194,880.037537 741.858337,880.095703 741.858337,880.095703 
z"/>
<path fill="#915530" opacity="1.000000" stroke="none" 
	d="
M464.016998,934.839966 
	C465.021118,936.544678 466.131226,938.196350 467.014252,939.961670 
	C526.897827,1059.677490 586.750854,1179.408691 646.676270,1299.103394 
	C649.013062,1303.770874 652.028931,1308.098267 654.978821,1313.000244 
	C647.376038,1311.537354 639.562744,1310.035400 631.750000,1308.530396 
	C583.770447,1299.288330 535.791382,1290.043457 487.807953,1280.821533 
	C487.042419,1280.674316 486.223541,1280.804932 485.207703,1281.078369 
	C477.404053,1279.609009 469.863098,1277.657349 462.231323,1276.171997 
	C448.965942,1273.590210 435.632477,1271.360352 422.349579,1268.865601 
	C405.401184,1265.682495 388.461945,1262.447632 371.542236,1259.115845 
	C353.182343,1255.500610 334.849426,1251.748535 316.144775,1247.581787 
	C317.026001,1245.802246 318.164642,1244.377563 319.523987,1243.209717 
	C336.192963,1228.890381 352.941315,1214.662842 369.521606,1200.241821 
	C371.373077,1198.631470 372.982635,1196.148315 373.586456,1193.784546 
	C391.235992,1124.690918 408.749115,1055.562378 426.229950,986.425659 
	C426.558380,985.126831 426.234772,983.663208 426.215393,982.276428 
	C426.060486,982.112488 425.905579,981.948547 425.706360,981.270020 
	C437.523529,967.297302 449.422455,953.871704 461.193939,940.335327 
	C462.506165,938.826294 463.093475,936.686951 464.016998,934.839966 
z"/>
<path fill="#91552F" opacity="1.000000" stroke="none" 
	d="
M734.895142,870.560913 
	C732.606628,866.563782 730.318054,862.566528 727.880310,858.217712 
	C727.183472,844.819946 726.635864,831.773743 726.088135,818.727600 
	C726.060120,818.062622 726.023987,817.397888 726.004578,816.732605 
	C725.645874,804.461365 725.374023,792.186768 724.910461,779.919495 
	C724.335266,764.698242 723.631653,749.481506 722.927368,734.265442 
	C722.323120,721.210022 721.593872,708.160278 721.003235,695.104248 
	C720.269775,678.889893 719.645325,662.670532 718.930420,646.455261 
	C718.296143,632.068542 717.593201,617.684937 716.938232,603.299133 
	C716.260620,588.414856 715.610657,573.529358 714.936890,558.644897 
	C714.278198,544.092773 713.593140,529.541809 712.940613,514.989441 
	C712.265808,499.938782 711.631897,484.886292 710.950989,469.835938 
	C710.300232,455.451050 709.612671,441.067780 708.940002,426.683868 
	C708.275024,412.464630 707.584961,398.246429 706.975464,384.024811 
	C706.908203,382.454681 707.297852,380.864960 707.475586,379.284302 
	C707.610901,379.302704 707.759094,379.292511 707.878052,379.346710 
	C708.026733,379.414429 708.151367,379.534973 708.762451,380.205505 
	C709.848145,380.824188 710.457764,380.870056 711.067383,380.915955 
	C711.067383,380.915955 711.000000,380.998779 710.827515,381.272949 
	C711.489624,382.346222 712.273438,383.207764 713.166382,383.935394 
	C747.093018,411.584229 781.009216,439.245880 814.974365,466.847290 
	C829.947510,479.015076 845.023010,491.057007 860.008789,503.347290 
	C859.965576,503.538452 859.857910,503.915497 859.569031,504.219910 
	C859.260010,507.515503 859.109436,510.512451 859.241089,513.496948 
	C860.091736,532.787170 861.043030,552.072998 861.886047,571.363525 
	C862.896301,594.481506 863.852112,617.601929 864.794434,640.722778 
	C866.523376,683.142334 868.304871,725.560059 869.895569,767.984863 
	C870.463013,783.116699 870.684875,798.250977 874.550110,812.912537 
	C871.186340,811.730774 869.355347,807.882385 864.929382,809.957703 
	C845.201477,819.208069 825.349731,828.195190 805.519409,837.226257 
	C788.416138,845.015503 771.234558,852.634644 754.184326,860.537720 
	C747.617004,863.581848 741.317017,867.202820 734.895142,870.560913 
M822.103027,659.412476 
	C818.905029,652.520081 815.707031,645.627686 812.501160,638.718323 
	C824.230164,635.975281 827.123657,632.333862 826.921021,619.620544 
	C826.847595,615.011719 826.280945,610.328247 825.263428,605.831787 
	C821.622986,589.744690 812.725708,576.471985 801.354492,565.027283 
	C792.356689,555.971313 782.404541,547.850525 772.725586,539.488770 
	C765.691956,533.412415 758.461609,527.558960 751.191345,521.766357 
	C750.055298,520.861267 747.828247,520.034912 746.837463,520.558105 
	C745.540161,521.243103 744.723511,523.219849 744.169128,524.804932 
	C743.753479,525.993652 744.073547,527.441223 744.073547,528.773499 
	C744.072754,563.414368 744.226746,598.056458 743.940308,632.694946 
	C743.884460,639.454041 745.141968,644.626099 751.341064,648.159790 
	C754.034241,649.695068 756.091309,652.307190 758.637756,654.153870 
	C760.101013,655.215027 761.965515,655.722900 763.649414,656.479797 
	C764.433411,654.607422 765.741882,652.776672 765.894531,650.854126 
	C766.236328,646.551147 766.002991,642.202393 766.003113,637.872314 
	C766.003418,628.944763 766.003174,620.017151 766.003174,610.165466 
	C770.561157,613.887024 774.432068,616.919983 778.161377,620.118103 
	C786.700684,627.441345 794.307678,635.513306 798.323975,646.323425 
	C804.867554,663.935913 811.290405,681.594482 818.019470,699.135742 
	C819.278015,702.416626 821.289917,705.673157 823.738892,708.171753 
	C827.555115,712.065308 831.981812,715.378784 836.298401,718.747803 
	C837.151367,719.413513 839.067993,719.787964 839.796509,719.285400 
	C840.833496,718.570007 841.608521,716.969360 841.780273,715.653625 
	C841.937744,714.447571 841.206787,713.096375 840.764343,711.845581 
	C834.663086,694.596924 828.544189,677.354553 822.103027,659.412476 
z"/>
<path fill="#4B4B4B" opacity="1.000000" stroke="none" 
	d="
M975.106628,1908.050537 
	C971.181030,1902.585083 967.024719,1896.847778 963.464355,1890.761841 
	C945.055664,1859.294678 926.805725,1827.734619 908.488525,1796.213867 
	C888.499084,1761.815308 868.497803,1727.423828 848.499512,1693.030396 
	C830.592651,1662.233765 812.688171,1631.435913 794.773010,1600.644165 
	C776.021240,1568.414185 757.254639,1536.192871 738.501038,1503.963989 
	C716.147217,1465.547852 693.655151,1427.210327 671.634033,1388.604370 
	C668.882385,1383.780396 668.277832,1377.589111 667.295898,1371.924316 
	C664.119995,1353.602661 661.228394,1335.231567 658.258606,1316.874512 
	C658.193726,1316.473877 658.504517,1316.012573 658.809814,1315.037476 
	C664.707947,1320.051758 670.375061,1324.824463 675.993225,1329.654175 
	C695.147034,1346.119995 714.371887,1362.504883 733.396790,1379.118530 
	C746.929016,1390.935791 760.028687,1403.249634 773.598145,1415.022827 
	C794.066711,1432.782104 814.779297,1450.260010 835.371216,1467.877319 
	C835.983765,1468.401611 836.405823,1469.148682 836.956726,1470.166382 
	C836.823547,1471.229126 836.338623,1472.017090 836.522217,1472.591064 
	C842.497375,1491.265503 848.565735,1509.910034 854.560364,1528.578369 
	C864.657349,1560.021729 874.723145,1591.475220 884.783997,1622.930176 
	C891.856934,1645.043457 898.910583,1667.162720 905.953430,1689.285522 
	C915.872498,1720.442871 925.761536,1751.609863 935.686218,1782.765503 
	C942.832336,1805.198364 950.066101,1827.603638 957.167236,1850.050781 
	C963.230896,1869.218018 969.161499,1888.427124 975.106628,1908.050537 
z"/>
<path fill="#DCDCD4" opacity="1.000000" stroke="none" 
	d="
M463.878479,934.491943 
	C463.093475,936.686951 462.506165,938.826294 461.193939,940.335327 
	C449.422455,953.871704 437.523529,967.297302 425.471558,981.026367 
	C414.073364,993.799927 402.865692,1006.302490 391.518951,1018.960205 
	C367.592804,1008.987000 343.829407,999.070923 320.057556,989.175110 
	C279.075073,972.114624 238.077850,955.089600 197.126480,937.954834 
	C194.762299,936.965637 192.317841,935.514709 190.642242,933.628784 
	C143.756592,880.859680 96.963234,828.008667 50.170437,775.157166 
	C48.855202,773.671631 47.712749,772.033020 46.788979,770.196899 
	C55.174461,774.550720 63.326817,779.062256 71.333328,783.819153 
	C88.781746,794.185608 106.170921,804.652100 123.555748,815.125183 
	C138.045029,823.853821 152.450638,832.721863 166.971298,841.397644 
	C184.808273,852.054871 202.766373,862.509338 220.597961,873.175415 
	C238.432693,883.843445 256.136810,894.730286 274.005829,905.339783 
	C276.410126,906.767395 279.397186,907.639282 282.194305,907.895264 
	C289.081390,908.525513 296.023468,908.524292 302.928070,909.000000 
	C316.180542,909.913208 329.421082,910.998474 342.669250,911.976196 
	C347.913910,912.363281 353.162506,912.718567 358.414917,912.973267 
	C366.326752,913.356873 374.246246,913.585266 382.157013,913.987549 
	C386.245728,914.195312 390.373291,915.213257 394.395264,914.860657 
	C405.912903,913.851074 417.380615,912.283081 428.877411,911.021179 
	C438.608887,909.952942 448.353638,909.005066 458.537506,908.013367 
	C460.568359,916.729858 462.154175,925.436890 463.878479,934.491943 
z"/>
<path fill="#DCDCD4" opacity="1.000000" stroke="none" 
	d="
M1622.997925,744.098694 
	C1622.677734,758.488525 1622.482910,772.882507 1622.003418,787.266968 
	C1621.487305,802.742737 1620.701416,818.209351 1620.038208,833.680176 
	C1619.367798,849.317017 1618.714233,864.954590 1618.033203,880.590942 
	C1617.381104,895.563171 1616.670898,910.532898 1616.054321,925.506592 
	C1615.844238,930.608643 1615.548706,930.807495 1610.338867,928.025757 
	C1609.993286,927.871094 1610.082886,927.945496 1609.957642,927.651367 
	C1609.220337,927.222839 1608.608154,927.088379 1607.927246,926.599487 
	C1601.958740,923.061890 1596.059082,919.878845 1590.142090,916.763428 
	C1590.124878,916.831116 1590.264526,916.836426 1590.158936,916.581482 
	C1589.716675,916.196167 1589.379761,916.065735 1588.865234,915.650757 
	C1587.097290,913.233704 1585.452271,911.139587 1583.924805,908.963013 
	C1538.964722,844.905212 1494.014038,780.840942 1449.067261,716.773926 
	C1428.889038,688.011841 1408.706909,659.252502 1388.601440,630.439575 
	C1387.710327,629.162598 1387.567261,627.363586 1387.075684,625.807617 
	C1396.731323,626.193481 1406.387939,626.551636 1416.041016,626.990845 
	C1417.772461,627.069580 1419.488647,627.482178 1421.698486,628.257080 
	C1423.828247,630.617920 1425.220825,632.792419 1427.151245,634.258545 
	C1473.367432,669.358398 1519.631104,704.395508 1565.946655,739.364075 
	C1567.572021,740.591187 1569.784546,741.586243 1571.777588,741.694946 
	C1588.843872,742.626404 1605.922852,743.328247 1622.997925,744.098694 
z"/>
<path fill="#22356C" opacity="1.000000" stroke="none" 
	d="
M1387.036133,625.828979 
	C1387.567261,627.363586 1387.710327,629.162598 1388.601440,630.439575 
	C1408.706909,659.252502 1428.889038,688.011841 1449.067261,716.773926 
	C1494.014038,780.840942 1538.964722,844.905212 1583.924805,908.963013 
	C1585.452271,911.139587 1587.097290,913.233704 1589.002808,915.878418 
	C1589.633545,916.539124 1589.948975,916.687805 1590.264526,916.836426 
	C1590.264526,916.836426 1590.124878,916.831116 1590.208008,917.119019 
	C1590.853516,918.423157 1591.328979,919.500244 1591.991089,920.446899 
	C1610.579590,947.024048 1629.164307,973.604065 1647.796753,1000.150513 
	C1678.180542,1043.439575 1708.612305,1086.695190 1738.995972,1129.984619 
	C1759.538940,1159.253418 1780.021362,1188.564697 1800.553833,1217.840942 
	C1827.389038,1256.103638 1854.226929,1294.364502 1881.104004,1332.597656 
	C1892.675049,1349.057495 1904.347534,1365.446167 1915.973877,1381.867188 
	C1914.064453,1381.125244 1912.154907,1380.383301 1910.066650,1379.373779 
	C1908.839722,1377.486206 1907.989746,1375.686768 1906.711670,1374.274780 
	C1896.002686,1362.443726 1884.724365,1351.086914 1874.604980,1338.775513 
	C1866.385620,1328.775879 1859.511230,1317.668823 1852.069946,1307.032104 
	C1806.943481,1242.526489 1761.835938,1178.007812 1716.701050,1113.508057 
	C1684.162476,1067.009033 1651.601318,1020.525818 1619.029419,974.050110 
	C1604.224243,952.925049 1589.333740,931.859741 1574.543823,910.724121 
	C1550.118896,875.819641 1525.777344,840.856628 1501.340698,805.960327 
	C1462.770874,750.881409 1424.132935,695.850159 1385.560059,640.773376 
	C1363.600342,609.417786 1341.741577,577.991516 1319.785645,546.633301 
	C1285.801758,498.096802 1251.768066,449.595337 1217.766602,401.071320 
	C1196.659180,370.948608 1175.570557,340.812622 1154.475708,310.681122 
	C1117.250366,257.509155 1080.028564,204.334641 1042.783081,151.176758 
	C1042.176392,150.310959 1041.286987,149.643204 1040.529541,148.882996 
	C1040.427979,149.011673 1040.303955,149.128967 1040.231323,149.272308 
	C1040.156860,149.419174 1040.132690,149.591553 1040.004272,150.041901 
	C1037.273315,141.866058 1034.624512,133.401093 1031.975830,124.936134 
	C1032.626343,124.637657 1033.276855,124.339188 1033.927368,124.040710 
	C1036.371948,127.386253 1038.879395,130.687973 1041.250366,134.084900 
	C1051.393921,148.617615 1061.433105,163.223541 1071.628540,177.719559 
	C1092.394531,207.244949 1113.298462,236.673386 1134.030762,266.222260 
	C1155.610107,296.978363 1177.033569,327.843689 1198.563965,358.634216 
	C1214.171753,380.955109 1229.811646,403.253723 1245.492676,425.523376 
	C1268.732056,458.527374 1292.084229,491.452179 1315.269409,524.494202 
	C1336.754761,555.113708 1358.083252,585.843323 1379.483032,616.522888 
	C1381.264893,619.077393 1383.062988,621.620544 1385.030518,624.919128 
	C1385.826416,625.749634 1386.445068,625.829895 1387.063843,625.910156 
	C1387.063843,625.910156 1386.996582,625.850342 1387.036133,625.828979 
z"/>
<path fill="#4D4D4E" opacity="1.000000" stroke="none" 
	d="
M1916.364258,1381.921143 
	C1904.347534,1365.446167 1892.675049,1349.057495 1881.104004,1332.597656 
	C1854.226929,1294.364502 1827.389038,1256.103638 1800.553833,1217.840942 
	C1780.021362,1188.564697 1759.538940,1159.253418 1738.995972,1129.984619 
	C1708.612305,1086.695190 1678.180542,1043.439575 1647.796753,1000.150513 
	C1629.164307,973.604065 1610.579590,947.024048 1591.991089,920.446899 
	C1591.328979,919.500244 1590.853516,918.423157 1590.225220,917.051270 
	C1596.059082,919.878845 1601.958740,923.061890 1608.101318,926.870239 
	C1608.923828,927.645569 1609.503418,927.795532 1610.082886,927.945496 
	C1610.082886,927.945496 1609.993286,927.871094 1610.023193,927.820679 
	C1610.675293,929.208008 1611.036987,930.843933 1611.958252,932.054138 
	C1628.146484,953.324219 1644.346802,974.585510 1660.660156,995.759583 
	C1677.884399,1018.115967 1695.269287,1040.348633 1712.511108,1062.691528 
	C1725.634766,1079.697876 1738.611572,1096.817383 1751.712646,1113.841187 
	C1769.721924,1137.242554 1787.787109,1160.600830 1805.828003,1183.977905 
	C1823.867065,1207.352417 1841.914429,1230.720459 1859.941895,1254.103882 
	C1875.564697,1274.368164 1891.155029,1294.657593 1906.777466,1314.922119 
	C1924.804321,1338.305786 1942.836914,1361.684937 1960.899292,1385.041138 
	C1965.063965,1390.426392 1969.359741,1395.710327 1973.595337,1401.040771 
	C1973.261230,1401.505127 1972.927246,1401.969482 1972.593140,1402.433716 
	C1953.980347,1395.614258 1935.367554,1388.794678 1916.364258,1381.921143 
z"/>
<path fill="#DCDCD4" opacity="1.000000" stroke="none" 
	d="
M860.052002,503.156097 
	C845.023010,491.057007 829.947510,479.015076 814.974365,466.847290 
	C781.009216,439.245880 747.093018,411.584229 713.166382,383.935394 
	C712.273438,383.207764 711.489624,382.346222 710.859070,381.229736 
	C724.414001,384.942291 737.812744,388.821106 751.106384,393.031769 
	C785.187805,403.826874 819.217163,414.786041 853.277893,425.646667 
	C873.288879,432.027405 893.310242,438.375641 913.344482,444.683014 
	C935.973328,451.807281 958.628967,458.846436 981.249756,465.996185 
	C983.355591,466.661774 985.294067,467.857056 987.607971,469.252350 
	C985.923706,470.409698 983.941589,471.121124 981.562378,471.860962 
	C947.029358,480.797028 912.885925,489.675354 878.766846,498.646667 
	C874.122803,499.867767 869.600891,501.553802 864.681396,502.746826 
	C862.910889,502.698120 861.481445,502.927124 860.052002,503.156097 
z"/>
<path fill="#262626" opacity="1.000000" stroke="none" 
	d="
M995.545776,477.992432 
	C1006.240967,492.615662 1017.004822,507.189240 1027.615967,521.873169 
	C1045.576660,546.727600 1063.461060,571.637329 1081.339233,596.551270 
	C1094.894653,615.441467 1108.391968,634.373413 1121.911865,653.289124 
	C1126.800903,660.129272 1132.297974,666.627502 1136.408081,673.908081 
	C1141.572754,683.056641 1145.598267,692.848206 1150.140381,702.938293 
	C1150.144165,703.790527 1150.241455,704.015076 1150.420166,704.308960 
	C1150.382568,704.429810 1150.544434,704.624451 1150.662109,704.941162 
	C1170.437988,746.344727 1190.224731,787.370728 1209.711304,828.538818 
	C1223.752441,858.202637 1237.393555,888.055664 1251.014404,918.103027 
	C1250.452759,918.654053 1250.089722,918.926392 1249.467041,918.976074 
	C1232.348755,889.717041 1215.522583,860.661865 1198.624756,831.648499 
	C1166.240234,776.044312 1133.807739,720.468079 1101.408691,664.872314 
	C1064.968262,602.341736 1028.542847,539.802490 992.550903,477.289093 
	C993.842590,477.538300 994.694214,477.765350 995.545776,477.992432 
z"/>
<path fill="#A8693F" opacity="1.000000" stroke="none" 
	d="
M1623.433350,744.070801 
	C1605.922852,743.328247 1588.843872,742.626404 1571.777588,741.694946 
	C1569.784546,741.586243 1567.572021,740.591187 1565.946655,739.364075 
	C1519.631104,704.395508 1473.367432,669.358398 1427.151245,634.258545 
	C1425.220825,632.792419 1423.828247,630.617920 1422.077393,628.461731 
	C1428.459839,628.088562 1434.953369,627.889465 1441.437744,628.053467 
	C1443.271118,628.099915 1445.196289,628.981445 1446.877930,629.863831 
	C1462.901367,638.271912 1478.868774,646.786682 1494.877197,655.223633 
	C1516.088257,666.402649 1537.320679,677.540894 1558.545532,688.693787 
	C1576.439941,698.096680 1594.351440,707.467590 1612.227905,716.904724 
	C1628.085083,725.275879 1643.915649,733.697388 1659.711792,742.182922 
	C1660.648071,742.685913 1661.171509,743.957153 1661.887207,744.870850 
	C1660.749390,745.244446 1659.593750,745.988403 1658.476562,745.934570 
	C1646.937012,745.377930 1635.403809,744.692505 1623.433350,744.070801 
z"/>
<path fill="#A8693F" opacity="1.000000" stroke="none" 
	d="
M1169.444458,583.059387 
	C1180.620117,620.363098 1191.795410,657.666992 1202.972534,694.970276 
	C1203.591064,697.034729 1204.225098,699.094543 1204.490356,701.575745 
	C1201.527710,701.983276 1198.926514,701.971497 1196.124268,701.669678 
	C1175.649170,688.892822 1155.375244,676.406067 1135.101196,663.919250 
	C1131.889526,657.342224 1128.450562,650.859863 1125.640259,644.115540 
	C1125.008911,642.599976 1125.978516,639.633545 1127.225220,638.246216 
	C1135.415771,629.131470 1143.884277,620.266479 1151.955078,611.647949 
	C1147.269165,603.136108 1143.018555,595.280884 1138.644409,587.494995 
	C1126.514404,565.903564 1114.296997,544.361206 1102.186035,522.759155 
	C1095.333618,510.536896 1088.607910,498.243439 1081.857056,485.964447 
	C1079.821411,482.261932 1077.892944,478.500549 1076.253296,474.475464 
	C1077.752808,475.367859 1079.000122,476.478943 1080.063599,477.744415 
	C1103.508057,505.644989 1126.893433,533.595154 1150.385986,561.455078 
	C1156.575073,568.794617 1163.083008,575.865295 1169.444458,583.059387 
z"/>
<path fill="#DBDAD2" opacity="1.000000" stroke="none" 
	d="
M426.161621,982.631287 
	C426.234772,983.663208 426.558380,985.126831 426.229950,986.425659 
	C408.749115,1055.562378 391.235992,1124.690918 373.586456,1193.784546 
	C372.982635,1196.148315 371.373077,1198.631470 369.521606,1200.241821 
	C352.941315,1214.662842 336.192963,1228.890381 319.523987,1243.209717 
	C318.164642,1244.377563 317.026001,1245.802246 315.729858,1247.456055 
	C313.190704,1247.450562 310.706512,1247.096680 308.042877,1246.387573 
	C313.019562,1234.884644 318.285675,1223.786011 323.314087,1212.580933 
	C357.441620,1136.532471 391.519165,1060.461548 425.607819,984.395508 
	C425.811035,983.942139 425.942688,983.456604 426.161621,982.631287 
z"/>
<path fill="#DCDBD3" opacity="1.000000" stroke="none" 
	d="
M1169.312012,582.674316 
	C1163.083008,575.865295 1156.575073,568.794617 1150.385986,561.455078 
	C1126.893433,533.595154 1103.508057,505.644989 1080.063599,477.744415 
	C1079.000122,476.478943 1077.752808,475.367859 1076.258179,474.103516 
	C1075.925171,474.022217 1075.984253,474.005371 1075.930786,473.758759 
	C1075.566650,473.075104 1075.256104,472.638062 1074.945435,472.201019 
	C1072.172119,467.728546 1069.398804,463.256042 1066.625488,458.783569 
	C1066.946411,458.456940 1067.267212,458.130310 1067.588135,457.803680 
	C1071.182861,460.479584 1074.873535,463.036713 1078.356323,465.851013 
	C1097.863403,481.613800 1117.299072,497.464874 1136.809814,513.222900 
	C1141.341064,516.882690 1146.070190,520.297546 1150.917969,523.585632 
	C1154.455566,533.925171 1157.840576,544.486572 1161.093506,555.088562 
	C1163.867798,564.131226 1166.489990,573.220581 1169.312012,582.674316 
z"/>
<path fill="#DCDBD3" opacity="1.000000" stroke="none" 
	d="
M1135.041016,664.301025 
	C1155.375244,676.406067 1175.649170,688.892822 1195.644165,701.691040 
	C1185.975708,702.367737 1176.580811,702.631409 1167.198975,703.136353 
	C1161.636963,703.435791 1156.095215,704.115662 1150.544434,704.624451 
	C1150.544434,704.624451 1150.382568,704.429810 1150.651978,704.120605 
	C1150.970581,703.618958 1151.019653,703.426453 1151.068848,703.234009 
	C1151.343628,702.387756 1152.095947,701.321716 1151.822632,700.727600 
	C1146.279297,688.680237 1140.618286,676.686951 1135.041016,664.301025 
z"/>
<path fill="#4D4D4E" opacity="1.000000" stroke="none" 
	d="
M995.386108,477.657104 
	C994.694214,477.765350 993.842590,477.538300 992.315063,477.087952 
	C989.696350,473.907440 988.088074,470.235748 983.202515,472.994720 
	C982.621582,472.581146 982.290588,472.206848 981.959534,471.832550 
	C983.941589,471.121124 985.923706,470.409698 987.967041,469.340576 
	C990.427734,471.762482 992.827087,474.542114 995.386108,477.657104 
z"/>
<path fill="#DCDCD4" opacity="1.000000" stroke="none" 
	d="
M46.953842,769.601868 
	C46.523029,769.671997 45.959354,769.413086 45.177238,768.800659 
	C45.579529,768.722351 46.200253,768.997559 46.953842,769.601868 
z"/>
<path fill="#DCDCD4" opacity="1.000000" stroke="none" 
	d="
M1386.959473,625.604065 
	C1386.445068,625.829895 1385.826416,625.749634 1385.106445,625.250977 
	C1385.621948,624.987793 1386.238647,625.142883 1386.959473,625.604065 
z"/>
<path fill="#A8693F" opacity="1.000000" stroke="none" 
	d="
M1074.922363,472.512817 
	C1075.256104,472.638062 1075.566650,473.075104 1075.929688,473.789246 
	C1075.620972,473.652405 1075.260132,473.238495 1074.922363,472.512817 
z"/>
<path fill="#DCDCD4" opacity="1.000000" stroke="none" 
	d="
M710.958984,380.604828 
	C710.457764,380.870056 709.848145,380.824188 709.087341,380.433929 
	C709.574341,380.157623 710.212463,380.225647 710.958984,380.604828 
z"/>
<path fill="#4B4B4B" opacity="1.000000" stroke="none" 
	d="
M976.120972,1910.911133 
	C975.664917,1910.648193 975.238953,1909.970825 974.911743,1908.875977 
	C975.390686,1909.137939 975.770874,1909.817261 976.120972,1910.911133 
z"/>
<path fill="#9EAC9A" opacity="1.000000" stroke="none" 
	d="
M1150.816284,703.183350 
	C1151.019653,703.426453 1150.970581,703.618958 1150.689575,703.999756 
	C1150.241455,704.015076 1150.144165,703.790527 1150.107300,703.332947 
	C1150.220459,703.145386 1150.392090,703.139099 1150.816284,703.183350 
z"/>
<path fill="#9EAC9A" opacity="1.000000" stroke="none" 
	d="
M1150.662109,704.941162 
	C1156.095215,704.115662 1161.636963,703.435791 1167.198975,703.136353 
	C1176.580811,702.631409 1185.975708,702.367737 1195.845215,701.981201 
	C1198.926514,701.971497 1201.527710,701.983276 1204.565552,701.941528 
	C1207.533691,705.411621 1210.065186,708.935120 1212.700684,712.779724 
	C1212.924316,715.638062 1212.673584,718.257812 1213.217529,720.700623 
	C1228.088013,787.493469 1242.943848,854.290039 1258.115967,921.014587 
	C1259.751221,928.206543 1263.082642,935.057068 1266.019775,941.897400 
	C1269.584351,950.198975 1269.705688,949.977112 1261.423828,953.366943 
	C1239.879761,962.185303 1218.385498,971.125488 1196.885132,980.050293 
	C1180.298462,986.935364 1163.729980,993.864319 1147.164062,1000.799194 
	C1146.109985,1001.240479 1145.148071,1001.902039 1143.935791,1002.762207 
	C1143.332642,1002.476990 1142.937256,1001.890564 1142.271118,1000.817383 
	C1141.739258,999.255188 1141.478027,998.179810 1141.593994,997.076172 
	C1144.031738,996.482788 1146.174561,996.119812 1148.141357,995.322754 
	C1183.849854,980.850647 1219.541626,966.337036 1255.215942,951.780884 
	C1256.980469,951.060913 1258.553711,949.872375 1260.470337,948.703247 
	C1261.830566,946.920715 1263.623779,946.093994 1261.713013,943.231018 
	C1259.363159,939.710266 1258.508057,935.191772 1256.960205,930.727234 
	C1255.013550,926.174683 1253.113403,921.999512 1251.213135,917.824341 
	C1237.393555,888.055664 1223.752441,858.202637 1209.711304,828.538818 
	C1190.224731,787.370728 1170.437988,746.344727 1150.662109,704.941162 
z"/>
<path fill="#DFD507" opacity="1.000000" stroke="none" 
	d="
M1255.349609,1066.689941 
	C1238.385010,1064.718506 1221.865112,1062.837646 1205.349365,1060.921265 
	C1196.798584,1059.929077 1188.255249,1058.874146 1179.417480,1056.853760 
	C1193.765869,1051.503052 1208.114136,1046.152344 1223.302612,1040.488403 
	C1210.502075,1028.927002 1198.109497,1017.734009 1185.216675,1006.089294 
	C1187.359619,1005.029968 1188.896851,1004.175476 1190.505981,1003.489136 
	C1207.935791,996.053833 1225.414062,988.730652 1242.782593,981.155457 
	C1246.217407,979.657471 1248.460693,980.140198 1251.133179,982.682800 
	C1261.873535,992.901062 1272.879150,1002.839966 1283.645508,1013.031311 
	C1286.203003,1015.452087 1288.436157,1016.305786 1292.040649,1015.175781 
	C1301.856201,1012.098694 1311.830811,1009.528381 1321.749878,1006.783936 
	C1323.283447,1006.359680 1324.855957,1006.076355 1327.304199,1005.527527 
	C1322.054932,1015.884033 1317.255371,1025.350952 1312.458130,1034.818848 
	C1307.046265,1045.499390 1301.435547,1056.086304 1296.332886,1066.912598 
	C1294.510742,1070.778564 1292.122070,1071.288452 1288.439331,1070.792236 
	C1277.574585,1069.328857 1266.679443,1068.091553 1255.349609,1066.689941 
z"/>
<path fill="#22336B" opacity="1.000000" stroke="none" 
	d="
M1371.306152,972.054626 
	C1373.243286,974.989563 1370.537598,992.951477 1367.616455,994.126709 
	C1358.053345,997.974365 1348.377197,1001.553345 1338.648438,1004.961365 
	C1337.498169,1005.364319 1335.515747,1004.385010 1334.327637,1003.498718 
	C1330.896240,1000.938965 1327.673462,998.099426 1323.934937,995.011230 
	C1325.814819,989.370178 1328.058228,983.311462 1329.768677,977.105774 
	C1330.298340,975.183716 1330.015015,972.490967 1329.018921,970.784424 
	C1322.978516,960.435974 1316.668335,950.243225 1310.332520,940.070496 
	C1309.211792,938.270874 1307.687500,936.656250 1306.111206,935.217041 
	C1294.174805,924.318420 1282.178955,913.484802 1270.082031,902.328003 
	C1269.962402,902.025085 1269.898682,902.061401 1269.898682,902.061401 
	C1271.268311,902.345947 1272.746460,902.389587 1273.991577,902.950623 
	C1298.520996,914.001709 1323.023560,925.112915 1347.329834,936.551880 
	C1340.592651,937.647705 1334.664673,942.743164 1332.985107,949.073120 
	C1329.733643,961.326843 1333.670532,971.543701 1341.962402,980.490540 
	C1346.850708,985.764771 1353.005615,988.552917 1359.959961,986.599731 
	C1366.831909,984.669617 1370.061035,978.894897 1371.306152,972.054626 
z"/>
<path fill="#FC1202" opacity="1.000000" stroke="none" 
	d="
M1371.183960,971.597778 
	C1370.061035,978.894897 1366.831909,984.669617 1359.959961,986.599731 
	C1353.005615,988.552917 1346.850708,985.764771 1341.962402,980.490540 
	C1333.670532,971.543701 1329.733643,961.326843 1332.985107,949.073120 
	C1334.664673,942.743164 1340.592651,937.647705 1347.519165,936.826782 
	C1362.701660,939.881592 1370.863892,949.889099 1371.052124,965.148315 
	C1371.076782,967.145569 1371.059570,969.143311 1371.183960,971.597778 
z"/>
<path fill="#000000" opacity="1.000000" stroke="none" 
	d="
M1487.351562,1096.191772 
	C1488.021240,1096.503540 1488.465576,1097.036499 1488.925537,1097.842285 
	C1488.336060,1097.547852 1487.731079,1096.980347 1487.351562,1096.191772 
z"/>
<path fill="#22336B" opacity="1.000000" stroke="none" 
	d="
M1269.992188,902.003418 
	C1269.808594,901.831604 1269.595215,901.681458 1269.381958,901.531250 
	C1269.677002,901.561829 1269.971924,901.592346 1270.082764,901.842163 
	C1269.898682,902.061401 1269.962402,902.025085 1269.992188,902.003418 
z"/>
<path fill="#684322" opacity="1.000000" stroke="none" 
	d="
M1141.216919,997.104370 
	C1141.478027,998.179810 1141.739258,999.255188 1142.044556,1000.663757 
	C1130.451660,997.634888 1118.783203,994.376831 1107.183838,990.889587 
	C1081.899414,983.288147 1056.637817,975.610596 1031.389771,967.888611 
	C1004.420227,959.640076 977.495422,951.244568 950.517944,943.021912 
	C913.811096,931.833923 877.056335,920.802979 840.353577,909.601746 
	C813.039673,901.265991 785.784485,892.737976 758.481628,884.365845 
	C753.262695,882.765442 747.943359,881.492676 742.264343,880.082214 
	C741.858337,880.095703 741.911194,880.037537 741.858887,879.904297 
	C741.534241,879.850220 741.261963,879.929321 740.989624,880.008484 
	C739.008850,877.054443 737.028076,874.100342 734.971191,870.853638 
	C741.317017,867.202820 747.617004,863.581848 754.184326,860.537720 
	C771.234558,852.634644 788.416138,845.015503 805.519409,837.226257 
	C825.349731,828.195190 845.201477,819.208069 864.929382,809.957703 
	C869.355347,807.882385 871.186340,811.730774 874.751343,813.190918 
	C902.150513,832.325195 928.990234,851.155090 955.868164,869.930237 
	C984.117310,889.663269 1012.396729,909.353088 1040.674438,929.045166 
	C1071.137939,950.259399 1101.585205,971.497192 1132.140381,992.578552 
	C1134.667236,994.321838 1137.965698,994.946533 1140.980225,996.345337 
	C1141.108887,996.767944 1141.162964,996.936157 1141.216919,997.104370 
z"/>
<path fill="#A70700" opacity="1.000000" stroke="none" 
	d="
M1075.217896,1101.922119 
	C1057.930664,1122.343262 1032.232300,1123.588501 1015.098694,1104.514282 
	C1004.419617,1092.625732 1000.345520,1073.577881 1012.071899,1055.091797 
	C1028.871826,1033.728516 1056.072266,1032.365479 1073.066284,1051.571899 
	C1084.222168,1064.180176 1087.437744,1084.127686 1075.217896,1101.922119 
z"/>
<path fill="#151417" opacity="1.000000" stroke="none" 
	d="
M1075.607300,1101.924072 
	C1087.437744,1084.127686 1084.222168,1064.180176 1073.066284,1051.571899 
	C1056.072266,1032.365479 1028.871826,1033.728516 1012.216187,1054.776367 
	C1011.476257,1043.124634 1013.908875,1032.136841 1019.522644,1021.453247 
	C1026.941406,1007.334412 1033.208008,992.610291 1039.980713,978.151428 
	C1040.729614,976.552795 1041.549683,974.987610 1042.947632,972.180359 
	C1044.060791,976.121094 1044.859497,978.757568 1045.549316,981.422302 
	C1049.671753,997.349243 1053.661499,1013.312012 1057.979248,1029.185669 
	C1058.713867,1031.886353 1060.337769,1034.730957 1062.373413,1036.625488 
	C1071.624878,1045.235962 1081.093018,1053.620972 1090.688965,1061.847168 
	C1092.245483,1063.181641 1094.833130,1063.885498 1096.952026,1063.902222 
	C1116.250854,1064.055786 1135.551514,1063.992432 1155.824829,1063.992432 
	C1154.442627,1065.200684 1153.773926,1065.973755 1152.943481,1066.483032 
	C1138.052246,1075.612671 1123.254028,1084.903809 1108.158081,1093.682617 
	C1104.263428,1095.947510 1099.476807,1096.811646 1094.999390,1097.908813 
	C1088.714355,1099.448853 1082.335449,1100.605347 1075.607300,1101.924072 
z"/>
<path fill="#915630" opacity="1.000000" stroke="none" 
	d="
M741.230286,880.114380 
	C741.261963,879.929321 741.534241,879.850220 741.892090,879.925293 
	C741.808777,880.126526 741.639893,880.173401 741.230286,880.114380 
z"/>
<path fill="#150C07" opacity="1.000000" stroke="none" 
	d="
M1140.905640,996.090942 
	C1137.965698,994.946533 1134.667236,994.321838 1132.140381,992.578552 
	C1101.585205,971.497192 1071.137939,950.259399 1040.674438,929.045166 
	C1012.396729,909.353088 984.117310,889.663269 955.868164,869.930237 
	C928.990234,851.155090 902.150513,832.325195 875.092651,813.241089 
	C870.684875,798.250977 870.463013,783.116699 869.895569,767.984863 
	C868.304871,725.560059 866.523376,683.142334 864.794434,640.722778 
	C863.852112,617.601929 862.896301,594.481506 861.886047,571.363525 
	C861.043030,552.072998 860.091736,532.787170 859.241089,513.496948 
	C859.109436,510.512451 859.260010,507.515503 859.909912,504.307373 
	C861.473938,504.754883 862.408203,505.419373 863.409546,506.402527 
	C864.070801,508.332153 864.664917,509.943085 865.192688,512.002075 
	C865.123413,513.447266 864.917847,514.493774 865.146912,515.434448 
	C871.983337,543.504700 877.892944,571.848145 885.994507,599.550232 
	C895.005310,630.361572 906.006409,660.591370 916.184326,691.059875 
	C917.024719,693.575806 917.961670,696.111816 919.249023,698.417786 
	C930.434326,718.453552 941.302185,738.682495 953.066650,758.374695 
	C966.451538,780.779114 980.617859,802.718201 994.535339,824.802246 
	C999.583191,832.812073 1004.226379,841.209106 1010.229614,848.455750 
	C1021.132751,861.617065 1032.776733,874.177429 1044.363525,886.756592 
	C1062.718018,906.683105 1081.202148,926.491943 1099.783936,946.206787 
	C1110.626221,957.710327 1121.832520,968.870056 1132.729858,980.322571 
	C1136.037964,983.799072 1138.915649,987.693970 1141.883179,991.481445 
	C1143.275146,993.258179 1143.884155,995.120361 1140.905640,996.090942 
z"/>
<path fill="#A80801" opacity="1.000000" stroke="none" 
	d="
M822.266235,659.761597 
	C828.544189,677.354553 834.663086,694.596924 840.764343,711.845581 
	C841.206787,713.096375 841.937744,714.447571 841.780273,715.653625 
	C841.608521,716.969360 840.833496,718.570007 839.796509,719.285400 
	C839.067993,719.787964 837.151367,719.413513 836.298401,718.747803 
	C831.981812,715.378784 827.555115,712.065308 823.738892,708.171753 
	C821.289917,705.673157 819.278015,702.416626 818.019470,699.135742 
	C811.290405,681.594482 804.867554,663.935913 798.323975,646.323425 
	C794.307678,635.513306 786.700684,627.441345 778.161377,620.118103 
	C774.432068,616.919983 770.561157,613.887024 766.003174,610.165466 
	C766.003174,620.017151 766.003418,628.944763 766.003113,637.872314 
	C766.002991,642.202393 766.236328,646.551147 765.894531,650.854126 
	C765.741882,652.776672 764.433411,654.607422 763.649414,656.479797 
	C761.965515,655.722900 760.101013,655.215027 758.637756,654.153870 
	C756.091309,652.307190 754.034241,649.695068 751.341064,648.159790 
	C745.141968,644.626099 743.884460,639.454041 743.940308,632.694946 
	C744.226746,598.056458 744.072754,563.414368 744.073547,528.773499 
	C744.073547,527.441223 743.753479,525.993652 744.169128,524.804932 
	C744.723511,523.219849 745.540161,521.243103 746.837463,520.558105 
	C747.828247,520.034912 750.055298,520.861267 751.191345,521.766357 
	C758.461609,527.558960 765.691956,533.412415 772.725586,539.488770 
	C782.404541,547.850525 792.356689,555.971313 801.354492,565.027283 
	C812.725708,576.471985 821.622986,589.744690 825.263428,605.831787 
	C826.280945,610.328247 826.847595,615.011719 826.921021,619.620544 
	C827.123657,632.333862 824.230164,635.975281 812.501160,638.718323 
	C815.707031,645.627686 818.905029,652.520081 822.266235,659.761597 
M803.978882,609.017334 
	C803.782288,605.882690 803.959656,602.670105 803.324829,599.626892 
	C800.452698,585.860229 791.514832,576.091736 781.328979,567.268738 
	C776.639954,563.207092 771.715515,559.417297 766.000000,554.775024 
	C766.000000,561.674683 766.605713,567.363281 765.873596,572.874207 
	C764.364075,584.235779 767.274414,593.010010 777.573792,599.164368 
	C784.501587,603.303955 790.752930,608.560059 797.518982,612.992920 
	C800.770630,615.123352 803.182068,613.840698 803.978882,609.017334 
z"/>
<path fill="#212121" opacity="1.000000" stroke="none" 
	d="
M863.342407,506.083862 
	C862.408203,505.419373 861.473938,504.754883 860.198853,504.002930 
	C859.857910,503.915497 859.965576,503.538452 860.008789,503.347290 
	C861.481445,502.927124 862.910889,502.698120 864.669128,502.732483 
	C864.997925,502.995819 864.976135,502.968292 864.908936,503.262573 
	C864.341980,504.399200 863.842163,505.241516 863.342407,506.083862 
z"/>
<path fill="#000000" opacity="1.000000" stroke="none" 
	d="
M1609.957642,927.651367 
	C1609.503418,927.795532 1608.923828,927.645569 1608.170166,927.224792 
	C1608.608154,927.088379 1609.220337,927.222839 1609.957642,927.651367 
z"/>
<path fill="#4D4D4E" opacity="1.000000" stroke="none" 
	d="
M1590.158936,916.581482 
	C1589.948975,916.687805 1589.633545,916.539124 1589.180420,916.162903 
	C1589.379761,916.065735 1589.716675,916.196167 1590.158936,916.581482 
z"/>
<path fill="#212121" opacity="1.000000" stroke="none" 
	d="
M1140.980225,996.345276 
	C1143.884155,995.120361 1143.275146,993.258179 1141.883179,991.481445 
	C1138.915649,987.693970 1136.037964,983.799072 1132.729858,980.322571 
	C1121.832520,968.870056 1110.626221,957.710327 1099.783936,946.206787 
	C1081.202148,926.491943 1062.718018,906.683105 1044.363525,886.756592 
	C1032.776733,874.177429 1021.132751,861.617065 1010.229614,848.455750 
	C1004.226379,841.209106 999.583191,832.812073 994.535339,824.802246 
	C980.617859,802.718201 966.451538,780.779114 953.066650,758.374695 
	C941.302185,738.682495 930.434326,718.453552 919.249023,698.417786 
	C917.961670,696.111816 917.024719,693.575806 916.184326,691.059875 
	C906.006409,660.591370 895.005310,630.361572 885.994507,599.550232 
	C877.892944,571.848145 871.983337,543.504700 865.146912,515.434448 
	C864.917847,514.493774 865.123413,513.447266 865.475464,512.215576 
	C927.252258,617.710999 988.677002,723.442627 1050.108643,829.170227 
	C1080.615845,881.675110 1111.163574,934.156616 1141.593384,986.706238 
	C1143.836426,990.579956 1146.430664,992.649780 1151.682007,991.585449 
	C1150.263184,989.042114 1149.106812,986.885559 1147.874878,984.773071 
	C1089.293579,884.317078 1030.701904,783.867188 972.119812,683.411621 
	C937.842285,624.633118 903.590759,565.839417 869.248352,507.098938 
	C868.285645,505.452301 866.420471,504.333344 864.976135,502.968323 
	C864.976135,502.968292 864.997925,502.995819 865.010193,503.010193 
	C869.600891,501.553802 874.122803,499.867767 878.766846,498.646667 
	C912.885925,489.675354 947.029358,480.797028 981.562378,471.860962 
	C982.290588,472.206848 982.621582,472.581146 983.330200,473.346008 
	C995.402222,493.878571 1007.093506,514.022461 1018.791870,534.162170 
	C1065.111938,613.905701 1111.432007,693.649048 1157.756226,773.390076 
	C1185.601440,821.321960 1213.432983,869.261902 1241.319580,917.169678 
	C1247.512573,927.808716 1253.911743,938.327698 1260.215942,948.901978 
	C1258.553711,949.872375 1256.980469,951.060913 1255.215942,951.780884 
	C1219.541626,966.337036 1183.849854,980.850647 1148.141357,995.322754 
	C1146.174561,996.119812 1144.031738,996.482788 1141.593994,997.076172 
	C1141.162964,996.936157 1141.108887,996.767944 1140.980225,996.345276 
z"/>
<path fill="#CFCFC8" opacity="1.000000" stroke="none" 
	d="
M1260.470337,948.703186 
	C1253.911743,938.327698 1247.512573,927.808716 1241.319580,917.169678 
	C1213.432983,869.261902 1185.601440,821.321960 1157.756226,773.390076 
	C1111.432007,693.649048 1065.111938,613.905701 1018.791870,534.162170 
	C1007.093506,514.022461 995.402222,493.878571 983.580017,473.385284 
	C988.088074,470.235748 989.696350,473.907440 991.874939,477.065796 
	C1028.542847,539.802490 1064.968262,602.341736 1101.408691,664.872314 
	C1133.807739,720.468079 1166.240234,776.044312 1198.624756,831.648499 
	C1215.522583,860.661865 1232.348755,889.717041 1249.554199,919.317993 
	C1252.269653,923.623291 1254.638184,927.363892 1257.006836,931.104553 
	C1258.508057,935.191772 1259.363159,939.710266 1261.713013,943.231018 
	C1263.623779,946.093994 1261.830566,946.920715 1260.470337,948.703186 
z"/>
<path fill="#4D4D4E" opacity="1.000000" stroke="none" 
	d="
M1256.960205,930.727234 
	C1254.638184,927.363892 1252.269653,923.623291 1249.813843,919.540710 
	C1250.089722,918.926392 1250.452759,918.654053 1251.014404,918.103027 
	C1253.113403,921.999512 1255.013550,926.174683 1256.960205,930.727234 
z"/>
<path fill="#D4D4CD" opacity="1.000000" stroke="none" 
	d="
M864.908936,503.262573 
	C866.420471,504.333344 868.285645,505.452301 869.248352,507.098938 
	C903.590759,565.839417 937.842285,624.633118 972.119812,683.411621 
	C1030.701904,783.867188 1089.293579,884.317078 1147.874878,984.773071 
	C1149.106812,986.885559 1150.263184,989.042114 1151.682007,991.585449 
	C1146.430664,992.649780 1143.836426,990.579956 1141.593384,986.706238 
	C1111.163574,934.156616 1080.615845,881.675110 1050.108643,829.170227 
	C988.677002,723.442627 927.252258,617.710999 865.541870,511.767517 
	C864.664917,509.943085 864.070801,508.332153 863.409546,506.402527 
	C863.842163,505.241516 864.341980,504.399200 864.908936,503.262573 
z"/>
<path fill="#91542E" opacity="1.000000" stroke="none" 
	d="
M803.919434,609.444885 
	C803.182068,613.840698 800.770630,615.123352 797.518982,612.992920 
	C790.752930,608.560059 784.501587,603.303955 777.573792,599.164368 
	C767.274414,593.010010 764.364075,584.235779 765.873596,572.874207 
	C766.605713,567.363281 766.000000,561.674683 766.000000,554.775024 
	C771.715515,559.417297 776.639954,563.207092 781.328979,567.268738 
	C791.514832,576.091736 800.452698,585.860229 803.324829,599.626892 
	C803.959656,602.670105 803.782288,605.882690 803.919434,609.444885 
z"/>
</svg>